<svg xmlns="http://www.w3.org/2000/svg" width="688" height="515.65625" style="
        width:688px;
        height:515.65625px;
        background: white;
        fill: none;
">
        
        <svg xmlns="http://www.w3.org/2000/svg" class="role-diagram-draw-area"><g class="shapes-region" style="stroke: black; fill: none;"><g class="arrow-line"><path class="connection real" stroke-dasharray="" d="  M570.5,29 Q573.01,26.52 575.5,29.03 Q577.99,31.54 580.5,29.06 Q583.02,26.58 585.5,29.1 Q587.99,31.61 590.5,29.13 Q593.01,26.65 595.5,29.16 Q597.99,31.67 600.5,29.19 Q603.01,26.71 605.5,29.22 Q607.98,31.74 610.5,29.26 Q613.01,26.78 615.5,29.29 Q617.99,31.8 620.5,29.32 Q623.01,26.84 625.5,29.35 Q627.99,31.86 630.5,29.38 Q633.02,26.9 635.5,29.42 Q637.99,31.93 640.5,29.45 Q643.01,26.97 645.5,29.48 Q647.99,31.99 650.5,29.51 Q653.01,27.03 655.5,29.54 Q657.99,32.05 660.5,29.57 Q663.02,27.09 665.5,29.61 Q667.99,32.12 670.5,29.64 Q673.01,27.16 675.5,29.67 L675.5,29.67 L675.5,29.67" style="stroke: rgb(0, 0, 0); stroke-width: 1; fill: none;"/></g><g class="arrow-line"><path class="connection real" stroke-dasharray="1.125 3.35" d="  M570.5,59 L675.5,59.67" style="stroke: rgb(0, 0, 0); stroke-width: 1; fill: none;"/></g><g class="arrow-line"><path class="connection real" stroke-dasharray="6 6" d="  M570.5,94 L675.5,93.67" style="stroke: rgb(0, 0, 0); stroke-width: 1; fill: none;"/></g><g class="intersections-group"><g style="stroke: rgb(0, 0, 0); stroke-width: 1; fill: none;"/></g></g><g/><g/><!-- react-empty: 602 --></svg>
        <svg xmlns="http://www.w3.org/2000/svg" width="686" height="513.65625" style="width:686px;height:513.65625px;font-family:Asana-Math, Asana;background:white;"><g><g><g style="transform:matrix(1,0,0,1,216.45834350585938,102.66666412353516);"><path d="M176 -11C232 -11 347 62 390 125C431 186 465 296 465 371C465 438 442 482 406 482C364 482 311 456 259 409C218 374 198 348 162 289L186 408C189 425 191 440 191 452C191 471 183 482 169 482C148 482 110 461 36 408L8 388L15 368L47 389C75 407 86 412 95 412C105 412 112 403 112 389C112 381 110 361 108 351L50 8C40 -52 21 -143 1 -233L-7 -270L0 -276C21 -269 41 -264 73 -259L115 3C136 -4 158 -11 176 -11ZM143 165C165 293 272 424 355 424C381 424 393 402 393 356C393 275 353 156 300 80C280 51 248 36 207 36C176 36 151 43 125 59ZM867 365C870 403 875 435 883 476C872 481 868 482 863 482C832 482 801 458 765 407C726 351 687 291 671 256L703 408C707 425 709 438 709 450C709 470 701 482 686 482C665 482 627 461 553 408L525 388L532 368L564 389C592 407 603 412 612 412C622 412 629 403 629 390C629 332 586 126 546 -2L556 -9C571 -4 587 -1 610 4L623 6L649 126C667 209 690 262 734 319C768 363 795 384 817 384C832 384 842 379 853 365ZM904 152C904 46 949 -11 1032 -11C1087 -11 1147 15 1192 57C1254 116 1298 230 1298 331C1298 425 1248 482 1165 482C1061 482 904 382 904 152ZM1128 444C1189 444 1222 399 1222 315C1222 219 1191 113 1147 60C1129 39 1103 27 1072 27C1014 27 980 72 980 151C980 264 1019 387 1068 427C1081 438 1104 444 1128 444ZM1813 722L1801 733C1749 707 1713 698 1641 691L1637 670L1685 670C1709 670 1719 663 1719 646C1719 638 1718 629 1717 622L1689 468C1659 477 1632 482 1607 482C1538 482 1444 410 1398 323C1367 265 1347 170 1347 86C1347 21 1362 -11 1391 -11C1418 -11 1455 6 1489 33C1543 77 1576 116 1643 217L1620 126C1609 82 1604 50 1604 24C1604 3 1613 -9 1630 -9C1647 -9 1671 3 1705 28L1786 88L1776 107L1732 76C1718 66 1702 59 1693 59C1685 59 1679 68 1679 82C1679 90 1680 99 1687 128ZM1444 59C1428 59 1419 73 1419 98C1419 224 1465 380 1514 418C1527 428 1546 433 1573 433C1617 433 1646 427 1679 410L1667 351C1630 171 1489 59 1444 59ZM2321 473L2314 482L2246 465L2236 414C2221 336 2196 268 2165 221C2106 130 2028 59 1988 59C1980 59 1975 68 1975 85C1975 99 1977 112 1982 137L2039 408C2042 424 2044 438 2044 451C2044 470 2035 482 2021 482C2001 482 1963 461 1889 408L1861 388L1868 368L1900 389C1928 407 1939 412 1948 412C1957 412 1965 403 1965 392C1965 388 1964 378 1963 374L1900 77C1898 68 1896 44 1896 30C1896 7 1911 -11 1931 -11C1994 -11 2115 101 2199 239L2162 97C2155 73 2151 46 2151 31C2151 6 2162 -9 2181 -9C2207 -9 2243 12 2341 85L2331 103L2305 86C2281 70 2255 59 2244 59C2236 59 2231 66 2231 76C2231 112 2306 416 2321 473ZM2726 330L2749 330C2757 395 2764 432 2773 458C2749 473 2714 482 2677 482C2632 483 2559 463 2502 400C2448 352 2409 241 2409 136C2409 40 2451 -11 2531 -11C2585 -11 2633 9 2688 54L2738 95L2730 115L2715 105C2643 57 2605 40 2570 40C2514 40 2485 80 2485 159C2485 267 2520 371 2569 409C2590 425 2614 433 2645 433C2690 433 2726 414 2726 390ZM2915 390L2859 107C2858 99 2846 61 2846 31C2846 6 2857 -9 2876 -9C2911 -9 2946 11 3024 74L3055 99L3045 117L3000 86C2971 66 2951 56 2940 56C2931 56 2926 64 2926 76C2926 102 2940 183 2969 328L2982 390L3089 390L3100 440C3062 436 3028 434 2990 434C3006 528 3017 577 3035 631L3024 646C3004 634 2977 622 2946 610L2921 440C2877 419 2851 408 2833 403L2831 390Z" stroke="rgb(0, 0, 0)" stroke-width="8" fill="rgb(0, 0, 0)" style="transform:matrix(0.017,0,0,-0.017,0,0);"></path></g></g></g><g><g><g style="transform:matrix(1,0,0,1,599.5,19.666664123535156);"><path d="M483 722L471 733C419 707 383 698 311 691L307 670L355 670C379 670 389 663 389 646C389 638 388 629 387 622L359 468C329 477 302 482 277 482C208 482 114 410 68 323C37 265 17 170 17 86C17 21 32 -11 61 -11C88 -11 125 6 159 33C213 77 246 116 313 217L290 126C279 82 274 50 274 24C274 3 283 -9 300 -9C317 -9 341 3 375 28L456 88L446 107L402 76C388 66 372 59 363 59C355 59 349 68 349 82C349 90 350 99 357 128ZM114 59C98 59 89 73 89 98C89 224 135 380 184 418C197 428 216 433 243 433C287 433 316 427 349 410L337 351C300 171 159 59 114 59ZM991 473L984 482L916 465L906 414C891 336 866 268 835 221C776 130 698 59 658 59C650 59 645 68 645 85C645 99 647 112 652 137L709 408C712 424 714 438 714 451C714 470 705 482 691 482C671 482 633 461 559 408L531 388L538 368L570 389C598 407 609 412 618 412C627 412 635 403 635 392C635 388 634 378 633 374L570 77C568 68 566 44 566 30C566 7 581 -11 601 -11C664 -11 785 101 869 239L832 97C825 73 821 46 821 31C821 6 832 -9 851 -9C877 -9 913 12 1011 85L1001 103L975 86C951 70 925 59 914 59C906 59 901 66 901 76C901 112 976 416 991 473ZM1325 204L1296 77C1292 60 1290 42 1290 26C1290 4 1299 -9 1314 -9C1337 -9 1378 17 1460 85L1453 106C1429 86 1400 59 1378 59C1369 59 1363 68 1363 82C1363 87 1363 90 1364 93L1456 472L1446 481L1413 463C1372 478 1355 482 1328 482C1300 482 1280 477 1253 464C1191 433 1158 403 1133 354C1089 265 1058 145 1058 67C1058 23 1073 -11 1092 -11C1129 -11 1209 41 1325 204ZM1373 414C1351 305 1332 253 1298 201C1241 117 1180 59 1148 59C1136 59 1130 72 1130 99C1130 163 1158 280 1193 360C1217 415 1240 433 1288 433C1311 433 1329 429 1373 414ZM1748 722L1736 733C1684 707 1648 698 1576 691L1572 670L1620 670C1644 670 1654 663 1654 648C1654 645 1654 640 1651 622C1640 567 1567 182 1552 132C1539 82 1533 52 1533 31C1533 6 1544 -9 1563 -9C1589 -9 1625 12 1723 85L1713 103L1687 86C1658 67 1636 56 1626 56C1619 56 1613 66 1613 76C1613 82 1614 89 1617 104ZM1808 388L1815 368L1847 389C1884 412 1887 414 1894 414C1904 414 1912 404 1912 391C1912 384 1908 361 1904 347L1838 107C1830 76 1825 49 1825 30C1825 6 1836 -9 1855 -9C1881 -9 1917 12 2015 85L2005 103L1979 86C1950 67 1927 56 1918 56C1911 56 1905 66 1905 76C1905 86 1907 95 1912 116L1989 420C1993 437 1995 448 1995 456C1995 473 1986 482 1970 482C1948 482 1911 461 1836 408ZM2002 712C1973 712 1944 679 1944 645C1944 620 1959 604 1983 604C2014 604 2038 633 2038 671C2038 695 2023 712 2002 712ZM2176 390L2120 107C2119 99 2107 61 2107 31C2107 6 2118 -9 2137 -9C2172 -9 2207 11 2285 74L2316 99L2306 117L2261 86C2232 66 2212 56 2201 56C2192 56 2187 64 2187 76C2187 102 2201 183 2230 328L2243 390L2350 390L2361 440C2323 436 2289 434 2251 434C2267 528 2278 577 2296 631L2285 646C2265 634 2238 622 2207 610L2182 440C2138 419 2112 408 2094 403L2092 390ZM2376 -180C2375 -187 2375 -193 2375 -198C2375 -241 2412 -276 2457 -276C2563 -276 2673 -152 2732 33L2873 473L2862 482C2833 471 2810 465 2788 463L2753 331C2741 284 2706 211 2673 162C2638 111 2589 67 2567 67C2555 67 2546 90 2547 115L2563 322C2565 353 2567 391 2567 419C2567 464 2560 482 2543 482C2530 482 2516 475 2468 442L2386 386L2397 368L2447 398C2452 401 2463 410 2472 410C2486 410 2494 391 2494 358C2494 357 2494 351 2493 343L2476 100L2475 60C2475 18 2493 -11 2518 -11C2555 -11 2639 74 2714 187L2665 16C2614 -161 2564 -234 2494 -234C2459 -234 2432 -207 2432 -172C2432 -167 2433 -159 2434 -150L2424 -146Z" stroke="rgb(0, 0, 0)" stroke-width="8" fill="rgb(0, 0, 0)" style="transform:matrix(0.017,0,0,-0.017,0,0);"></path></g></g></g><g><g><g style="transform:matrix(1,0,0,1,594.3541870117188,50.666664123535156);"><path d="M34 388L41 368L73 389C110 412 113 414 120 414C130 414 138 404 138 391C138 384 134 361 130 347L64 107C56 76 51 49 51 30C51 6 62 -9 81 -9C107 -9 143 12 241 85L231 103L205 86C176 67 153 56 144 56C137 56 131 66 131 76C131 86 133 95 138 116L215 420C219 437 221 448 221 456C221 473 212 482 196 482C174 482 137 461 62 408ZM228 712C199 712 170 679 170 645C170 620 185 604 209 604C240 604 264 633 264 671C264 695 249 712 228 712ZM301 388L308 368L340 389C377 412 380 414 387 414C398 414 405 404 405 389C405 338 364 145 323 2L330 -9C355 -2 378 4 400 8C419 134 440 199 486 268C540 352 615 414 660 414C671 414 677 405 677 390C677 372 674 351 666 319L614 107C605 70 601 47 601 31C601 6 612 -9 631 -9C657 -9 693 12 791 85L781 103L755 86C726 67 704 56 694 56C687 56 681 65 681 76C681 81 682 92 683 96L749 372C756 401 760 429 760 446C760 469 749 482 729 482C687 482 618 444 559 389C521 354 493 320 441 247L479 408C483 426 485 438 485 449C485 470 477 482 462 482C441 482 402 460 329 408ZM866 388L873 368L905 389C942 412 945 414 952 414C962 414 970 404 970 391C970 384 966 361 962 347L896 107C888 76 883 49 883 30C883 6 894 -9 913 -9C939 -9 975 12 1073 85L1063 103L1037 86C1008 67 985 56 976 56C969 56 963 66 963 76C963 86 965 95 970 116L1047 420C1051 437 1053 448 1053 456C1053 473 1044 482 1028 482C1006 482 969 461 894 408ZM1060 712C1031 712 1002 679 1002 645C1002 620 1017 604 1041 604C1072 604 1096 633 1096 671C1096 695 1081 712 1060 712ZM1234 390L1178 107C1177 99 1165 61 1165 31C1165 6 1176 -9 1195 -9C1230 -9 1265 11 1343 74L1374 99L1364 117L1319 86C1290 66 1270 56 1259 56C1250 56 1245 64 1245 76C1245 102 1259 183 1288 328L1301 390L1408 390L1419 440C1381 436 1347 434 1309 434C1325 528 1336 577 1354 631L1343 646C1323 634 1296 622 1265 610L1240 440C1196 419 1170 408 1152 403L1150 390ZM1475 388L1482 368L1514 389C1551 412 1554 414 1561 414C1571 414 1579 404 1579 391C1579 384 1575 361 1571 347L1505 107C1497 76 1492 49 1492 30C1492 6 1503 -9 1522 -9C1548 -9 1584 12 1682 85L1672 103L1646 86C1617 67 1594 56 1585 56C1578 56 1572 66 1572 76C1572 86 1574 95 1579 116L1656 420C1660 437 1662 448 1662 456C1662 473 1653 482 1637 482C1615 482 1578 461 1503 408ZM1669 712C1640 712 1611 679 1611 645C1611 620 1626 604 1650 604C1681 604 1705 633 1705 671C1705 695 1690 712 1669 712ZM1989 204L1960 77C1956 60 1954 42 1954 26C1954 4 1963 -9 1978 -9C2001 -9 2042 17 2124 85L2117 106C2093 86 2064 59 2042 59C2033 59 2027 68 2027 82C2027 87 2027 90 2028 93L2120 472L2110 481L2077 463C2036 478 2019 482 1992 482C1964 482 1944 477 1917 464C1855 433 1822 403 1797 354C1753 265 1722 145 1722 67C1722 23 1737 -11 1756 -11C1793 -11 1873 41 1989 204ZM2037 414C2015 305 1996 253 1962 201C1905 117 1844 59 1812 59C1800 59 1794 72 1794 99C1794 163 1822 280 1857 360C1881 415 1904 433 1952 433C1975 433 1993 429 2037 414ZM2412 722L2400 733C2348 707 2312 698 2240 691L2236 670L2284 670C2308 670 2318 663 2318 648C2318 645 2318 640 2315 622C2304 567 2231 182 2216 132C2203 82 2197 52 2197 31C2197 6 2208 -9 2227 -9C2253 -9 2289 12 2387 85L2377 103L2351 86C2322 67 2300 56 2290 56C2283 56 2277 66 2277 76C2277 82 2278 89 2281 104ZM2472 388L2479 368L2511 389C2548 412 2551 414 2558 414C2568 414 2576 404 2576 391C2576 384 2572 361 2568 347L2502 107C2494 76 2489 49 2489 30C2489 6 2500 -9 2519 -9C2545 -9 2581 12 2679 85L2669 103L2643 86C2614 67 2591 56 2582 56C2575 56 2569 66 2569 76C2569 86 2571 95 2576 116L2653 420C2657 437 2659 448 2659 456C2659 473 2650 482 2634 482C2612 482 2575 461 2500 408ZM2666 712C2637 712 2608 679 2608 645C2608 620 2623 604 2647 604C2678 604 2702 633 2702 671C2702 695 2687 712 2666 712ZM2840 390L2784 107C2783 99 2771 61 2771 31C2771 6 2782 -9 2801 -9C2836 -9 2871 11 2949 74L2980 99L2970 117L2925 86C2896 66 2876 56 2865 56C2856 56 2851 64 2851 76C2851 102 2865 183 2894 328L2907 390L3014 390L3025 440C2987 436 2953 434 2915 434C2931 528 2942 577 2960 631L2949 646C2929 634 2902 622 2871 610L2846 440C2802 419 2776 408 2758 403L2756 390ZM3040 -180C3039 -187 3039 -193 3039 -198C3039 -241 3076 -276 3121 -276C3227 -276 3337 -152 3396 33L3537 473L3526 482C3497 471 3474 465 3452 463L3417 331C3405 284 3370 211 3337 162C3302 111 3253 67 3231 67C3219 67 3210 90 3211 115L3227 322C3229 353 3231 391 3231 419C3231 464 3224 482 3207 482C3194 482 3180 475 3132 442L3050 386L3061 368L3111 398C3116 401 3127 410 3136 410C3150 410 3158 391 3158 358C3158 357 3158 351 3157 343L3140 100L3139 60C3139 18 3157 -11 3182 -11C3219 -11 3303 74 3378 187L3329 16C3278 -161 3228 -234 3158 -234C3123 -234 3096 -207 3096 -172C3096 -167 3097 -159 3098 -150L3088 -146Z" stroke="rgb(0, 0, 0)" stroke-width="8" fill="rgb(0, 0, 0)" style="transform:matrix(0.017,0,0,-0.017,0,0);"></path></g></g></g><g><g><g style="transform:matrix(1,0,0,1,575.4791870117188,82.66666412353516);"><path d="M275 482C208 482 55 419 55 259C55 182 100 136 177 136C185 136 196 136 207 137L166 99C150 84 139 66 139 52C139 42 146 31 160 19C91 -4 -37 -48 -37 -159C-37 -230 33 -276 142 -276C271 -276 384 -204 384 -121C384 -85 363 -49 320 -14L260 35C226 62 213 81 213 100C213 114 228 128 240 146C338 170 409 253 409 342C409 357 406 376 405 380C422 378 430 378 439 378C456 378 466 379 489 382L498 427L495 433C467 426 447 424 393 424C393 425 369 482 275 482ZM176 1L253 -58C299 -94 318 -121 318 -154C318 -206 249 -248 166 -248C84 -248 27 -206 27 -145C27 -43 137 -11 176 1ZM250 448C308 448 337 412 337 341C337 238 289 168 219 168C158 168 126 209 126 288C126 383 177 448 250 448ZM827 111L803 94C750 56 702 36 666 36C619 36 590 73 590 133C590 158 593 185 598 214C615 218 724 248 749 259C834 296 873 342 873 404C873 451 839 482 789 482C721 496 611 423 574 349C544 299 514 180 514 113C514 35 558 -11 630 -11C687 -11 743 17 835 92ZM612 274C629 343 649 386 678 412C696 428 727 440 751 440C780 440 799 420 799 388C799 344 764 297 712 272C684 258 648 247 603 237ZM911 388L918 368L950 389C987 412 990 414 997 414C1008 414 1015 404 1015 389C1015 338 974 145 933 2L940 -9C965 -2 988 4 1010 8C1029 134 1050 199 1096 268C1150 352 1225 414 1270 414C1281 414 1287 405 1287 390C1287 372 1284 351 1276 319L1224 107C1215 70 1211 47 1211 31C1211 6 1222 -9 1241 -9C1267 -9 1303 12 1401 85L1391 103L1365 86C1336 67 1314 56 1304 56C1297 56 1291 65 1291 76C1291 81 1292 92 1293 96L1359 372C1366 401 1370 429 1370 446C1370 469 1359 482 1339 482C1297 482 1228 444 1169 389C1131 354 1103 320 1051 247L1089 408C1093 426 1095 438 1095 449C1095 470 1087 482 1072 482C1051 482 1012 460 939 408ZM1770 111L1746 94C1693 56 1645 36 1609 36C1562 36 1533 73 1533 133C1533 158 1536 185 1541 214C1558 218 1667 248 1692 259C1777 296 1816 342 1816 404C1816 451 1782 482 1732 482C1664 496 1554 423 1517 349C1487 299 1457 180 1457 113C1457 35 1501 -11 1573 -11C1630 -11 1686 17 1778 92ZM1555 274C1572 343 1592 386 1621 412C1639 428 1670 440 1694 440C1723 440 1742 420 1742 388C1742 344 1707 297 1655 272C1627 258 1591 247 1546 237ZM2198 365C2201 403 2206 435 2214 476C2203 481 2199 482 2194 482C2163 482 2132 458 2096 407C2057 351 2018 291 2002 256L2034 408C2038 425 2040 438 2040 450C2040 470 2032 482 2017 482C1996 482 1958 461 1884 408L1856 388L1863 368L1895 389C1923 407 1934 412 1943 412C1953 412 1960 403 1960 390C1960 332 1917 126 1877 -2L1887 -9C1902 -4 1918 -1 1941 4L1954 6L1980 126C1998 209 2021 262 2065 319C2099 363 2126 384 2148 384C2163 384 2173 379 2184 365ZM2489 204L2460 77C2456 60 2454 42 2454 26C2454 4 2463 -9 2478 -9C2501 -9 2542 17 2624 85L2617 106C2593 86 2564 59 2542 59C2533 59 2527 68 2527 82C2527 87 2527 90 2528 93L2620 472L2610 481L2577 463C2536 478 2519 482 2492 482C2464 482 2444 477 2417 464C2355 433 2322 403 2297 354C2253 265 2222 145 2222 67C2222 23 2237 -11 2256 -11C2293 -11 2373 41 2489 204ZM2537 414C2515 305 2496 253 2462 201C2405 117 2344 59 2312 59C2300 59 2294 72 2294 99C2294 163 2322 280 2357 360C2381 415 2404 433 2452 433C2475 433 2493 429 2537 414ZM2912 722L2900 733C2848 707 2812 698 2740 691L2736 670L2784 670C2808 670 2818 663 2818 648C2818 645 2818 640 2815 622C2804 567 2731 182 2716 132C2703 82 2697 52 2697 31C2697 6 2708 -9 2727 -9C2753 -9 2789 12 2887 85L2877 103L2851 86C2822 67 2800 56 2790 56C2783 56 2777 66 2777 76C2777 82 2778 89 2781 104ZM2972 388L2979 368L3011 389C3048 412 3051 414 3058 414C3068 414 3076 404 3076 391C3076 384 3072 361 3068 347L3002 107C2994 76 2989 49 2989 30C2989 6 3000 -9 3019 -9C3045 -9 3081 12 3179 85L3169 103L3143 86C3114 67 3091 56 3082 56C3075 56 3069 66 3069 76C3069 86 3071 95 3076 116L3153 420C3157 437 3159 448 3159 456C3159 473 3150 482 3134 482C3112 482 3075 461 3000 408ZM3166 712C3137 712 3108 679 3108 645C3108 620 3123 604 3147 604C3178 604 3202 633 3202 671C3202 695 3187 712 3166 712ZM3537 -11C3549 -11 3558 -9 3587 -1C3598 61 3606 95 3617 142L3595 142L3573 82C3567 64 3555 57 3534 57C3522 57 3506 59 3485 64L3467 68C3434 75 3400 80 3381 80C3349 80 3322 74 3286 59L3625 441L3631 473L3622 482L3599 459C3589 449 3579 445 3565 445C3531 445 3479 453 3431 466L3413 471C3385 478 3365 482 3351 482C3334 482 3314 479 3290 472L3258 350L3279 350L3309 408C3326 412 3335 413 3348 413C3389 413 3421 398 3474 398C3510 398 3534 404 3567 421L3214 21L3223 -6C3252 17 3279 26 3314 26C3377 26 3468 -11 3537 -11ZM3929 204L3900 77C3896 60 3894 42 3894 26C3894 4 3903 -9 3918 -9C3941 -9 3982 17 4064 85L4057 106C4033 86 4004 59 3982 59C3973 59 3967 68 3967 82C3967 87 3967 90 3968 93L4060 472L4050 481L4017 463C3976 478 3959 482 3932 482C3904 482 3884 477 3857 464C3795 433 3762 403 3737 354C3693 265 3662 145 3662 67C3662 23 3677 -11 3696 -11C3733 -11 3813 41 3929 204ZM3977 414C3955 305 3936 253 3902 201C3845 117 3784 59 3752 59C3740 59 3734 72 3734 99C3734 163 3762 280 3797 360C3821 415 3844 433 3892 433C3915 433 3933 429 3977 414ZM4226 390L4170 107C4169 99 4157 61 4157 31C4157 6 4168 -9 4187 -9C4222 -9 4257 11 4335 74L4366 99L4356 117L4311 86C4282 66 4262 56 4251 56C4242 56 4237 64 4237 76C4237 102 4251 183 4280 328L4293 390L4400 390L4411 440C4373 436 4339 434 4301 434C4317 528 4328 577 4346 631L4335 646C4315 634 4288 622 4257 610L4232 440C4188 419 4162 408 4144 403L4142 390ZM4467 388L4474 368L4506 389C4543 412 4546 414 4553 414C4563 414 4571 404 4571 391C4571 384 4567 361 4563 347L4497 107C4489 76 4484 49 4484 30C4484 6 4495 -9 4514 -9C4540 -9 4576 12 4674 85L4664 103L4638 86C4609 67 4586 56 4577 56C4570 56 4564 66 4564 76C4564 86 4566 95 4571 116L4648 420C4652 437 4654 448 4654 456C4654 473 4645 482 4629 482C4607 482 4570 461 4495 408ZM4661 712C4632 712 4603 679 4603 645C4603 620 4618 604 4642 604C4673 604 4697 633 4697 671C4697 695 4682 712 4661 712ZM4727 152C4727 46 4772 -11 4855 -11C4910 -11 4970 15 5015 57C5077 116 5121 230 5121 331C5121 425 5071 482 4988 482C4884 482 4727 382 4727 152ZM4951 444C5012 444 5045 399 5045 315C5045 219 5014 113 4970 60C4952 39 4926 27 4895 27C4837 27 4803 72 4803 151C4803 264 4842 387 4891 427C4904 438 4927 444 4951 444ZM5177 388L5184 368L5216 389C5253 412 5256 414 5263 414C5274 414 5281 404 5281 389C5281 338 5240 145 5199 2L5206 -9C5231 -2 5254 4 5276 8C5295 134 5316 199 5362 268C5416 352 5491 414 5536 414C5547 414 5553 405 5553 390C5553 372 5550 351 5542 319L5490 107C5481 70 5477 47 5477 31C5477 6 5488 -9 5507 -9C5533 -9 5569 12 5667 85L5657 103L5631 86C5602 67 5580 56 5570 56C5563 56 5557 65 5557 76C5557 81 5558 92 5559 96L5625 372C5632 401 5636 429 5636 446C5636 469 5625 482 5605 482C5563 482 5494 444 5435 389C5397 354 5369 320 5317 247L5355 408C5359 426 5361 438 5361 449C5361 470 5353 482 5338 482C5317 482 5278 460 5205 408Z" stroke="rgb(0, 0, 0)" stroke-width="8" fill="rgb(0, 0, 0)" style="transform:matrix(0.017,0,0,-0.017,0,0);"></path></g></g></g><g><g><g style="transform:matrix(1,0,0,1,129.546875,261.66666412353516);"><path d="M730 103L704 86C675 67 653 56 643 56C636 56 630 65 630 76C630 86 632 95 637 116L712 413C716 430 719 446 719 454C719 471 709 482 693 482C664 482 626 464 565 421C502 376 467 341 418 272L448 409C452 429 455 444 455 451C455 470 445 482 429 482C399 482 353 460 298 418C254 384 234 363 169 275L202 408C206 424 208 439 208 451C208 470 199 482 185 482C164 482 126 461 52 408L24 388L31 368C68 391 103 414 110 414C121 414 128 404 128 389C128 338 87 145 46 2L49 -9L117 6L139 108C163 219 190 278 245 338C287 384 332 414 360 414C367 414 371 406 371 393C371 358 349 244 308 69L292 2L297 -9L366 6L387 113C403 194 437 269 481 318C536 379 586 414 618 414C626 414 631 405 631 389C631 365 628 351 606 264C566 105 550 84 550 31C550 6 561 -9 580 -9C606 -9 642 12 740 85ZM794 152C794 46 839 -11 922 -11C977 -11 1037 15 1082 57C1144 116 1188 230 1188 331C1188 425 1138 482 1055 482C951 482 794 382 794 152ZM1018 444C1079 444 1112 399 1112 315C1112 219 1081 113 1037 60C1019 39 993 27 962 27C904 27 870 72 870 151C870 264 909 387 958 427C971 438 994 444 1018 444ZM1244 388L1251 368L1283 389C1320 412 1323 414 1330 414C1341 414 1348 404 1348 389C1348 338 1307 145 1266 2L1273 -9C1298 -2 1321 4 1343 8C1362 134 1383 199 1429 268C1483 352 1558 414 1603 414C1614 414 1620 405 1620 390C1620 372 1617 351 1609 319L1557 107C1548 70 1544 47 1544 31C1544 6 1555 -9 1574 -9C1600 -9 1636 12 1734 85L1724 103L1698 86C1669 67 1647 56 1637 56C1630 56 1624 65 1624 76C1624 81 1625 92 1626 96L1692 372C1699 401 1703 429 1703 446C1703 469 1692 482 1672 482C1630 482 1561 444 1502 389C1464 354 1436 320 1384 247L1422 408C1426 426 1428 438 1428 449C1428 470 1420 482 1405 482C1384 482 1345 460 1272 408ZM1792 152C1792 46 1837 -11 1920 -11C1975 -11 2035 15 2080 57C2142 116 2186 230 2186 331C2186 425 2136 482 2053 482C1949 482 1792 382 1792 152ZM2016 444C2077 444 2110 399 2110 315C2110 219 2079 113 2035 60C2017 39 1991 27 1960 27C1902 27 1868 72 1868 151C1868 264 1907 387 1956 427C1969 438 1992 444 2016 444ZM2252 388L2259 368L2291 389C2328 412 2331 414 2338 414C2348 414 2356 404 2356 391C2356 384 2352 361 2348 347L2282 107C2274 76 2269 49 2269 30C2269 6 2280 -9 2299 -9C2325 -9 2361 12 2459 85L2449 103L2423 86C2394 67 2371 56 2362 56C2355 56 2349 66 2349 76C2349 86 2351 95 2356 116L2433 420C2437 437 2439 448 2439 456C2439 473 2430 482 2414 482C2392 482 2355 461 2280 408ZM2446 712C2417 712 2388 679 2388 645C2388 620 2403 604 2427 604C2458 604 2482 633 2482 671C2482 695 2467 712 2446 712ZM2978 722L2966 733C2914 707 2878 698 2806 691L2802 670L2850 670C2874 670 2884 663 2884 646C2884 638 2883 629 2882 622L2854 468C2824 477 2797 482 2772 482C2703 482 2609 410 2563 323C2532 265 2512 170 2512 86C2512 21 2527 -11 2556 -11C2583 -11 2620 6 2654 33C2708 77 2741 116 2808 217L2785 126C2774 82 2769 50 2769 24C2769 3 2778 -9 2795 -9C2812 -9 2836 3 2870 28L2951 88L2941 107L2897 76C2883 66 2867 59 2858 59C2850 59 2844 68 2844 82C2844 90 2845 99 2852 128ZM2609 59C2593 59 2584 73 2584 98C2584 224 2630 380 2679 418C2692 428 2711 433 2738 433C2782 433 2811 427 2844 410L2832 351C2795 171 2654 59 2609 59Z" stroke="rgb(0, 0, 0)" stroke-width="8" fill="rgb(0, 0, 0)" style="transform:matrix(0.017,0,0,-0.017,0,0);"></path></g></g></g></svg>
</svg>
