<svg xmlns="http://www.w3.org/2000/svg" width="688" height="515.65625" style="
        width:688px;
        height:515.65625px;
        background: white;
        fill: none;
">
        
        <svg xmlns="http://www.w3.org/2000/svg" class="role-diagram-draw-area"><g class="shapes-region" style="stroke: black; fill: none;"><g class="arrow-line"><path class="connection real" stroke-dasharray="" d="  M570.5,29 Q573.01,26.52 575.5,29.03 Q577.99,31.54 580.5,29.06 Q583.02,26.58 585.5,29.1 Q587.99,31.61 590.5,29.13 Q593.01,26.65 595.5,29.16 Q597.99,31.67 600.5,29.19 Q603.01,26.71 605.5,29.22 Q607.98,31.74 610.5,29.26 Q613.01,26.78 615.5,29.29 Q617.99,31.8 620.5,29.32 Q623.01,26.84 625.5,29.35 Q627.99,31.86 630.5,29.38 Q633.02,26.9 635.5,29.42 Q637.99,31.93 640.5,29.45 Q643.01,26.97 645.5,29.48 Q647.99,31.99 650.5,29.51 Q653.01,27.03 655.5,29.54 Q657.99,32.05 660.5,29.57 Q663.02,27.09 665.5,29.61 Q667.99,32.12 670.5,29.64 Q673.01,27.16 675.5,29.67 L675.5,29.67 L675.5,29.67" style="stroke: rgb(0, 0, 0); stroke-width: 1; fill: none;"/></g><g class="arrow-line"><path class="connection real" stroke-dasharray="1.125 3.35" d="  M570.5,59 L675.5,59.67" style="stroke: rgb(0, 0, 0); stroke-width: 1; fill: none;"/></g><g class="arrow-line"><path class="connection real" stroke-dasharray="6 6" d="  M570.5,94 L675.5,93.67" style="stroke: rgb(0, 0, 0); stroke-width: 1; fill: none;"/></g><g class="intersections-group"><g style="stroke: rgb(0, 0, 0); stroke-width: 1; fill: none;"/></g></g><g><g class="connection-group"><g class="arrow-line"><path class="connection real" stroke-dasharray="" d="  M243,108.5 Q245.5,111 243,113.5 Q240.5,116 243,118.5 Q245.5,121 243,123.5 Q240.5,126 243,128.5 Q245.5,131 243,133.5 Q240.5,136 243,138.5 L243,140 L243,148" style="stroke: rgb(0, 0, 0); stroke-width: 1; fill: none;"/><g stroke="#000" transform="matrix(-1.8369701987210297e-16,-1,1,-1.8369701987210297e-16,243,149.99999999999997)" style="stroke: rgb(0, 0, 0); stroke-width: 1;"><path d=" M10.93,-3.29 Q4.96,-0.45 0,0 Q4.96,0.45 10.93,3.29"/></g></g></g><g class="connection-group"><g class="arrow-line"><path class="connection real" stroke-dasharray="6 6" d="  M273.5,96.31 L317.5,96.75" style="stroke: rgb(0, 0, 0); stroke-width: 1; fill: none;"/><g stroke="#000" transform="matrix(-0.9999505153082835,-0.009948212638374506,0.009948212638374506,-0.9999505153082835,319.49999999999994,96.765)" style="stroke: rgb(0, 0, 0); stroke-width: 1;"><path d=" M10.93,-3.29 Q4.96,-0.45 0,0 Q4.96,0.45 10.93,3.29"/></g></g></g><g class="connection-group"><g class="arrow-line"><path class="connection real" stroke-dasharray="" d="  M335.34,109.5 L319.84,134.79" style="stroke: rgb(0, 0, 0); stroke-width: 1; fill: none;"/><g stroke="#000" transform="matrix(0.522498564715949,-0.8526401643540921,0.8526401643540921,0.522498564715949,318.7903225806452,136.50000000000003)" style="stroke: rgb(0, 0, 0); stroke-width: 1;"><path d=" M10.93,-3.29 Q4.96,-0.45 0,0 Q4.96,0.45 10.93,3.29"/></g></g></g><g class="connection-group"><g class="arrow-line"><path class="connection real" stroke-dasharray="" d="  M338,158.64 Q340.47,156.12 343,158.59 Q345.53,161.06 348,158.53 Q350.48,156.01 353,158.48 Q355.53,160.95 358,158.42 L362.5,158.37 L370.5,158.29" style="stroke: rgb(0, 0, 0); stroke-width: 1; fill: none;"/><g stroke="#000" transform="matrix(-0.9999414531032158,0.010820830182078129,-0.010820830182078129,-0.9999414531032158,372.5,158.2663043478261)" style="stroke: rgb(0, 0, 0); stroke-width: 1;"><path d=" M10.93,-3.29 Q4.96,-0.45 0,0 Q4.96,0.45 10.93,3.29"/></g></g></g><g class="connection-group"><g class="arrow-line"><path class="connection real" stroke-dasharray="1.125 3.35" d="  M155.2,267.5 L155.61,293.5" style="stroke: rgb(0, 0, 0); stroke-width: 1; fill: none;"/><g stroke="#000" transform="matrix(-0.015881828465203345,-0.9998738758086451,0.9998738758086451,-0.015881828465203345,155.64285714285714,295.5)" style="stroke: rgb(0, 0, 0); stroke-width: 1;"><path d=" M10.93,-3.29 Q4.96,-0.45 0,0 Q4.96,0.45 10.93,3.29"/></g></g></g><g class="connection-group"><g class="arrow-line"><path class="connection real" stroke-dasharray="6 6" d="  M184.5,255 L216,255" style="stroke: rgb(0, 0, 0); stroke-width: 1; fill: none;"/><g stroke="#000" transform="matrix(-1,1.2246467991473532e-16,-1.2246467991473532e-16,-1,217.99999999999997,255.00000000000003)" style="stroke: rgb(0, 0, 0); stroke-width: 1;"><path d=" M10.93,-3.29 Q4.96,-0.45 0,0 Q4.96,0.45 10.93,3.29"/></g></g></g><g class="connection-group"><g class="arrow-line"><path class="connection real" stroke-dasharray="" d="  M464,283.65 C400.99,295.82 337.31,289.52 272.97,264.77" style="stroke: rgb(0, 0, 0); stroke-width: 1; fill: none;"/><g stroke="#000" transform="matrix(0.9323869024091287,0.3614618433748019,-0.3614618433748019,0.9323869024091287,272,264.39350164323736)" style="stroke: rgb(0, 0, 0); stroke-width: 1;"><path d=" M10.93,-3.29 Q4.96,-0.45 0,0 Q4.96,0.45 10.93,3.29"/></g></g></g></g><g/><!-- react-empty: 602 --></svg>
        <svg xmlns="http://www.w3.org/2000/svg" width="686" height="513.65625" style="width:686px;height:513.65625px;font-family:Asana-Math, Asana;background:white;"><g><g><g style="transform:matrix(1,0,0,1,216.45834350585938,102.66666412353516);"><path d="M176 -11C232 -11 347 62 390 125C431 186 465 296 465 371C465 438 442 482 406 482C364 482 311 456 259 409C218 374 198 348 162 289L186 408C189 425 191 440 191 452C191 471 183 482 169 482C148 482 110 461 36 408L8 388L15 368L47 389C75 407 86 412 95 412C105 412 112 403 112 389C112 381 110 361 108 351L50 8C40 -52 21 -143 1 -233L-7 -270L0 -276C21 -269 41 -264 73 -259L115 3C136 -4 158 -11 176 -11ZM143 165C165 293 272 424 355 424C381 424 393 402 393 356C393 275 353 156 300 80C280 51 248 36 207 36C176 36 151 43 125 59ZM867 365C870 403 875 435 883 476C872 481 868 482 863 482C832 482 801 458 765 407C726 351 687 291 671 256L703 408C707 425 709 438 709 450C709 470 701 482 686 482C665 482 627 461 553 408L525 388L532 368L564 389C592 407 603 412 612 412C622 412 629 403 629 390C629 332 586 126 546 -2L556 -9C571 -4 587 -1 610 4L623 6L649 126C667 209 690 262 734 319C768 363 795 384 817 384C832 384 842 379 853 365ZM904 152C904 46 949 -11 1032 -11C1087 -11 1147 15 1192 57C1254 116 1298 230 1298 331C1298 425 1248 482 1165 482C1061 482 904 382 904 152ZM1128 444C1189 444 1222 399 1222 315C1222 219 1191 113 1147 60C1129 39 1103 27 1072 27C1014 27 980 72 980 151C980 264 1019 387 1068 427C1081 438 1104 444 1128 444ZM1813 722L1801 733C1749 707 1713 698 1641 691L1637 670L1685 670C1709 670 1719 663 1719 646C1719 638 1718 629 1717 622L1689 468C1659 477 1632 482 1607 482C1538 482 1444 410 1398 323C1367 265 1347 170 1347 86C1347 21 1362 -11 1391 -11C1418 -11 1455 6 1489 33C1543 77 1576 116 1643 217L1620 126C1609 82 1604 50 1604 24C1604 3 1613 -9 1630 -9C1647 -9 1671 3 1705 28L1786 88L1776 107L1732 76C1718 66 1702 59 1693 59C1685 59 1679 68 1679 82C1679 90 1680 99 1687 128ZM1444 59C1428 59 1419 73 1419 98C1419 224 1465 380 1514 418C1527 428 1546 433 1573 433C1617 433 1646 427 1679 410L1667 351C1630 171 1489 59 1444 59ZM2321 473L2314 482L2246 465L2236 414C2221 336 2196 268 2165 221C2106 130 2028 59 1988 59C1980 59 1975 68 1975 85C1975 99 1977 112 1982 137L2039 408C2042 424 2044 438 2044 451C2044 470 2035 482 2021 482C2001 482 1963 461 1889 408L1861 388L1868 368L1900 389C1928 407 1939 412 1948 412C1957 412 1965 403 1965 392C1965 388 1964 378 1963 374L1900 77C1898 68 1896 44 1896 30C1896 7 1911 -11 1931 -11C1994 -11 2115 101 2199 239L2162 97C2155 73 2151 46 2151 31C2151 6 2162 -9 2181 -9C2207 -9 2243 12 2341 85L2331 103L2305 86C2281 70 2255 59 2244 59C2236 59 2231 66 2231 76C2231 112 2306 416 2321 473ZM2726 330L2749 330C2757 395 2764 432 2773 458C2749 473 2714 482 2677 482C2632 483 2559 463 2502 400C2448 352 2409 241 2409 136C2409 40 2451 -11 2531 -11C2585 -11 2633 9 2688 54L2738 95L2730 115L2715 105C2643 57 2605 40 2570 40C2514 40 2485 80 2485 159C2485 267 2520 371 2569 409C2590 425 2614 433 2645 433C2690 433 2726 414 2726 390ZM2915 390L2859 107C2858 99 2846 61 2846 31C2846 6 2857 -9 2876 -9C2911 -9 2946 11 3024 74L3055 99L3045 117L3000 86C2971 66 2951 56 2940 56C2931 56 2926 64 2926 76C2926 102 2940 183 2969 328L2982 390L3089 390L3100 440C3062 436 3028 434 2990 434C3006 528 3017 577 3035 631L3024 646C3004 634 2977 622 2946 610L2921 440C2877 419 2851 408 2833 403L2831 390Z" stroke="rgb(0, 0, 0)" stroke-width="8" fill="rgb(0, 0, 0)" style="transform:matrix(0.017,0,0,-0.017,0,0);"></path></g></g></g><g><g><g style="transform:matrix(1,0,0,1,228.375,169.16666412353516);"><path d="M31 148C26 97 20 62 9 16C47 -2 81 -11 116 -11C165 -11 211 7 262 47C313 87 334 124 334 174C334 228 302 257 228 271L185 279C125 290 106 307 106 348C106 401 151 442 208 442C249 442 287 424 303 397L303 342L326 342C330 377 334 404 345 455C306 474 278 482 245 482C193 482 132 452 84 404C58 377 47 352 47 316C47 260 78 228 144 215L207 203C251 195 267 177 267 138C267 73 221 29 150 29C115 29 84 40 56 64L56 148ZM880 473L873 482L805 465L795 414C780 336 755 268 724 221C665 130 587 59 547 59C539 59 534 68 534 85C534 99 536 112 541 137L598 408C601 424 603 438 603 451C603 470 594 482 580 482C560 482 522 461 448 408L420 388L427 368L459 389C487 407 498 412 507 412C516 412 524 403 524 392C524 388 523 378 522 374L459 77C457 68 455 44 455 30C455 7 470 -11 490 -11C553 -11 674 101 758 239L721 97C714 73 710 46 710 31C710 6 721 -9 740 -9C766 -9 802 12 900 85L890 103L864 86C840 70 814 59 803 59C795 59 790 66 790 76C790 112 865 416 880 473ZM1673 103L1647 86C1618 67 1596 56 1586 56C1579 56 1573 65 1573 76C1573 86 1575 95 1580 116L1655 413C1659 430 1662 446 1662 454C1662 471 1652 482 1636 482C1607 482 1569 464 1508 421C1445 376 1410 341 1361 272L1391 409C1395 429 1398 444 1398 451C1398 470 1388 482 1372 482C1342 482 1296 460 1241 418C1197 384 1177 363 1112 275L1145 408C1149 424 1151 439 1151 451C1151 470 1142 482 1128 482C1107 482 1069 461 995 408L967 388L974 368C1011 391 1046 414 1053 414C1064 414 1071 404 1071 389C1071 338 1030 145 989 2L992 -9L1060 6L1082 108C1106 219 1133 278 1188 338C1230 384 1275 414 1303 414C1310 414 1314 406 1314 393C1314 358 1292 244 1251 69L1235 2L1240 -9L1309 6L1330 113C1346 194 1380 269 1424 318C1479 379 1529 414 1561 414C1569 414 1574 405 1574 389C1574 365 1571 351 1549 264C1509 105 1493 84 1493 31C1493 6 1504 -9 1523 -9C1549 -9 1585 12 1683 85Z" stroke="rgb(0, 0, 0)" stroke-width="8" fill="rgb(0, 0, 0)" style="transform:matrix(0.017,0,0,-0.017,0,0);"></path></g></g></g><g><g><g style="transform:matrix(1,0,0,1,599.5,19.666664123535156);"><path d="M483 722L471 733C419 707 383 698 311 691L307 670L355 670C379 670 389 663 389 646C389 638 388 629 387 622L359 468C329 477 302 482 277 482C208 482 114 410 68 323C37 265 17 170 17 86C17 21 32 -11 61 -11C88 -11 125 6 159 33C213 77 246 116 313 217L290 126C279 82 274 50 274 24C274 3 283 -9 300 -9C317 -9 341 3 375 28L456 88L446 107L402 76C388 66 372 59 363 59C355 59 349 68 349 82C349 90 350 99 357 128ZM114 59C98 59 89 73 89 98C89 224 135 380 184 418C197 428 216 433 243 433C287 433 316 427 349 410L337 351C300 171 159 59 114 59ZM991 473L984 482L916 465L906 414C891 336 866 268 835 221C776 130 698 59 658 59C650 59 645 68 645 85C645 99 647 112 652 137L709 408C712 424 714 438 714 451C714 470 705 482 691 482C671 482 633 461 559 408L531 388L538 368L570 389C598 407 609 412 618 412C627 412 635 403 635 392C635 388 634 378 633 374L570 77C568 68 566 44 566 30C566 7 581 -11 601 -11C664 -11 785 101 869 239L832 97C825 73 821 46 821 31C821 6 832 -9 851 -9C877 -9 913 12 1011 85L1001 103L975 86C951 70 925 59 914 59C906 59 901 66 901 76C901 112 976 416 991 473ZM1325 204L1296 77C1292 60 1290 42 1290 26C1290 4 1299 -9 1314 -9C1337 -9 1378 17 1460 85L1453 106C1429 86 1400 59 1378 59C1369 59 1363 68 1363 82C1363 87 1363 90 1364 93L1456 472L1446 481L1413 463C1372 478 1355 482 1328 482C1300 482 1280 477 1253 464C1191 433 1158 403 1133 354C1089 265 1058 145 1058 67C1058 23 1073 -11 1092 -11C1129 -11 1209 41 1325 204ZM1373 414C1351 305 1332 253 1298 201C1241 117 1180 59 1148 59C1136 59 1130 72 1130 99C1130 163 1158 280 1193 360C1217 415 1240 433 1288 433C1311 433 1329 429 1373 414ZM1748 722L1736 733C1684 707 1648 698 1576 691L1572 670L1620 670C1644 670 1654 663 1654 648C1654 645 1654 640 1651 622C1640 567 1567 182 1552 132C1539 82 1533 52 1533 31C1533 6 1544 -9 1563 -9C1589 -9 1625 12 1723 85L1713 103L1687 86C1658 67 1636 56 1626 56C1619 56 1613 66 1613 76C1613 82 1614 89 1617 104ZM1808 388L1815 368L1847 389C1884 412 1887 414 1894 414C1904 414 1912 404 1912 391C1912 384 1908 361 1904 347L1838 107C1830 76 1825 49 1825 30C1825 6 1836 -9 1855 -9C1881 -9 1917 12 2015 85L2005 103L1979 86C1950 67 1927 56 1918 56C1911 56 1905 66 1905 76C1905 86 1907 95 1912 116L1989 420C1993 437 1995 448 1995 456C1995 473 1986 482 1970 482C1948 482 1911 461 1836 408ZM2002 712C1973 712 1944 679 1944 645C1944 620 1959 604 1983 604C2014 604 2038 633 2038 671C2038 695 2023 712 2002 712ZM2176 390L2120 107C2119 99 2107 61 2107 31C2107 6 2118 -9 2137 -9C2172 -9 2207 11 2285 74L2316 99L2306 117L2261 86C2232 66 2212 56 2201 56C2192 56 2187 64 2187 76C2187 102 2201 183 2230 328L2243 390L2350 390L2361 440C2323 436 2289 434 2251 434C2267 528 2278 577 2296 631L2285 646C2265 634 2238 622 2207 610L2182 440C2138 419 2112 408 2094 403L2092 390ZM2376 -180C2375 -187 2375 -193 2375 -198C2375 -241 2412 -276 2457 -276C2563 -276 2673 -152 2732 33L2873 473L2862 482C2833 471 2810 465 2788 463L2753 331C2741 284 2706 211 2673 162C2638 111 2589 67 2567 67C2555 67 2546 90 2547 115L2563 322C2565 353 2567 391 2567 419C2567 464 2560 482 2543 482C2530 482 2516 475 2468 442L2386 386L2397 368L2447 398C2452 401 2463 410 2472 410C2486 410 2494 391 2494 358C2494 357 2494 351 2493 343L2476 100L2475 60C2475 18 2493 -11 2518 -11C2555 -11 2639 74 2714 187L2665 16C2614 -161 2564 -234 2494 -234C2459 -234 2432 -207 2432 -172C2432 -167 2433 -159 2434 -150L2424 -146Z" stroke="rgb(0, 0, 0)" stroke-width="8" fill="rgb(0, 0, 0)" style="transform:matrix(0.017,0,0,-0.017,0,0);"></path></g></g></g><g><g><g style="transform:matrix(1,0,0,1,594.3541870117188,50.666664123535156);"><path d="M34 388L41 368L73 389C110 412 113 414 120 414C130 414 138 404 138 391C138 384 134 361 130 347L64 107C56 76 51 49 51 30C51 6 62 -9 81 -9C107 -9 143 12 241 85L231 103L205 86C176 67 153 56 144 56C137 56 131 66 131 76C131 86 133 95 138 116L215 420C219 437 221 448 221 456C221 473 212 482 196 482C174 482 137 461 62 408ZM228 712C199 712 170 679 170 645C170 620 185 604 209 604C240 604 264 633 264 671C264 695 249 712 228 712ZM301 388L308 368L340 389C377 412 380 414 387 414C398 414 405 404 405 389C405 338 364 145 323 2L330 -9C355 -2 378 4 400 8C419 134 440 199 486 268C540 352 615 414 660 414C671 414 677 405 677 390C677 372 674 351 666 319L614 107C605 70 601 47 601 31C601 6 612 -9 631 -9C657 -9 693 12 791 85L781 103L755 86C726 67 704 56 694 56C687 56 681 65 681 76C681 81 682 92 683 96L749 372C756 401 760 429 760 446C760 469 749 482 729 482C687 482 618 444 559 389C521 354 493 320 441 247L479 408C483 426 485 438 485 449C485 470 477 482 462 482C441 482 402 460 329 408ZM866 388L873 368L905 389C942 412 945 414 952 414C962 414 970 404 970 391C970 384 966 361 962 347L896 107C888 76 883 49 883 30C883 6 894 -9 913 -9C939 -9 975 12 1073 85L1063 103L1037 86C1008 67 985 56 976 56C969 56 963 66 963 76C963 86 965 95 970 116L1047 420C1051 437 1053 448 1053 456C1053 473 1044 482 1028 482C1006 482 969 461 894 408ZM1060 712C1031 712 1002 679 1002 645C1002 620 1017 604 1041 604C1072 604 1096 633 1096 671C1096 695 1081 712 1060 712ZM1234 390L1178 107C1177 99 1165 61 1165 31C1165 6 1176 -9 1195 -9C1230 -9 1265 11 1343 74L1374 99L1364 117L1319 86C1290 66 1270 56 1259 56C1250 56 1245 64 1245 76C1245 102 1259 183 1288 328L1301 390L1408 390L1419 440C1381 436 1347 434 1309 434C1325 528 1336 577 1354 631L1343 646C1323 634 1296 622 1265 610L1240 440C1196 419 1170 408 1152 403L1150 390ZM1475 388L1482 368L1514 389C1551 412 1554 414 1561 414C1571 414 1579 404 1579 391C1579 384 1575 361 1571 347L1505 107C1497 76 1492 49 1492 30C1492 6 1503 -9 1522 -9C1548 -9 1584 12 1682 85L1672 103L1646 86C1617 67 1594 56 1585 56C1578 56 1572 66 1572 76C1572 86 1574 95 1579 116L1656 420C1660 437 1662 448 1662 456C1662 473 1653 482 1637 482C1615 482 1578 461 1503 408ZM1669 712C1640 712 1611 679 1611 645C1611 620 1626 604 1650 604C1681 604 1705 633 1705 671C1705 695 1690 712 1669 712ZM1989 204L1960 77C1956 60 1954 42 1954 26C1954 4 1963 -9 1978 -9C2001 -9 2042 17 2124 85L2117 106C2093 86 2064 59 2042 59C2033 59 2027 68 2027 82C2027 87 2027 90 2028 93L2120 472L2110 481L2077 463C2036 478 2019 482 1992 482C1964 482 1944 477 1917 464C1855 433 1822 403 1797 354C1753 265 1722 145 1722 67C1722 23 1737 -11 1756 -11C1793 -11 1873 41 1989 204ZM2037 414C2015 305 1996 253 1962 201C1905 117 1844 59 1812 59C1800 59 1794 72 1794 99C1794 163 1822 280 1857 360C1881 415 1904 433 1952 433C1975 433 1993 429 2037 414ZM2412 722L2400 733C2348 707 2312 698 2240 691L2236 670L2284 670C2308 670 2318 663 2318 648C2318 645 2318 640 2315 622C2304 567 2231 182 2216 132C2203 82 2197 52 2197 31C2197 6 2208 -9 2227 -9C2253 -9 2289 12 2387 85L2377 103L2351 86C2322 67 2300 56 2290 56C2283 56 2277 66 2277 76C2277 82 2278 89 2281 104ZM2472 388L2479 368L2511 389C2548 412 2551 414 2558 414C2568 414 2576 404 2576 391C2576 384 2572 361 2568 347L2502 107C2494 76 2489 49 2489 30C2489 6 2500 -9 2519 -9C2545 -9 2581 12 2679 85L2669 103L2643 86C2614 67 2591 56 2582 56C2575 56 2569 66 2569 76C2569 86 2571 95 2576 116L2653 420C2657 437 2659 448 2659 456C2659 473 2650 482 2634 482C2612 482 2575 461 2500 408ZM2666 712C2637 712 2608 679 2608 645C2608 620 2623 604 2647 604C2678 604 2702 633 2702 671C2702 695 2687 712 2666 712ZM2840 390L2784 107C2783 99 2771 61 2771 31C2771 6 2782 -9 2801 -9C2836 -9 2871 11 2949 74L2980 99L2970 117L2925 86C2896 66 2876 56 2865 56C2856 56 2851 64 2851 76C2851 102 2865 183 2894 328L2907 390L3014 390L3025 440C2987 436 2953 434 2915 434C2931 528 2942 577 2960 631L2949 646C2929 634 2902 622 2871 610L2846 440C2802 419 2776 408 2758 403L2756 390ZM3040 -180C3039 -187 3039 -193 3039 -198C3039 -241 3076 -276 3121 -276C3227 -276 3337 -152 3396 33L3537 473L3526 482C3497 471 3474 465 3452 463L3417 331C3405 284 3370 211 3337 162C3302 111 3253 67 3231 67C3219 67 3210 90 3211 115L3227 322C3229 353 3231 391 3231 419C3231 464 3224 482 3207 482C3194 482 3180 475 3132 442L3050 386L3061 368L3111 398C3116 401 3127 410 3136 410C3150 410 3158 391 3158 358C3158 357 3158 351 3157 343L3140 100L3139 60C3139 18 3157 -11 3182 -11C3219 -11 3303 74 3378 187L3329 16C3278 -161 3228 -234 3158 -234C3123 -234 3096 -207 3096 -172C3096 -167 3097 -159 3098 -150L3088 -146Z" stroke="rgb(0, 0, 0)" stroke-width="8" fill="rgb(0, 0, 0)" style="transform:matrix(0.017,0,0,-0.017,0,0);"></path></g></g></g><g><g><g style="transform:matrix(1,0,0,1,575.4791870117188,82.66666412353516);"><path d="M275 482C208 482 55 419 55 259C55 182 100 136 177 136C185 136 196 136 207 137L166 99C150 84 139 66 139 52C139 42 146 31 160 19C91 -4 -37 -48 -37 -159C-37 -230 33 -276 142 -276C271 -276 384 -204 384 -121C384 -85 363 -49 320 -14L260 35C226 62 213 81 213 100C213 114 228 128 240 146C338 170 409 253 409 342C409 357 406 376 405 380C422 378 430 378 439 378C456 378 466 379 489 382L498 427L495 433C467 426 447 424 393 424C393 425 369 482 275 482ZM176 1L253 -58C299 -94 318 -121 318 -154C318 -206 249 -248 166 -248C84 -248 27 -206 27 -145C27 -43 137 -11 176 1ZM250 448C308 448 337 412 337 341C337 238 289 168 219 168C158 168 126 209 126 288C126 383 177 448 250 448ZM827 111L803 94C750 56 702 36 666 36C619 36 590 73 590 133C590 158 593 185 598 214C615 218 724 248 749 259C834 296 873 342 873 404C873 451 839 482 789 482C721 496 611 423 574 349C544 299 514 180 514 113C514 35 558 -11 630 -11C687 -11 743 17 835 92ZM612 274C629 343 649 386 678 412C696 428 727 440 751 440C780 440 799 420 799 388C799 344 764 297 712 272C684 258 648 247 603 237ZM911 388L918 368L950 389C987 412 990 414 997 414C1008 414 1015 404 1015 389C1015 338 974 145 933 2L940 -9C965 -2 988 4 1010 8C1029 134 1050 199 1096 268C1150 352 1225 414 1270 414C1281 414 1287 405 1287 390C1287 372 1284 351 1276 319L1224 107C1215 70 1211 47 1211 31C1211 6 1222 -9 1241 -9C1267 -9 1303 12 1401 85L1391 103L1365 86C1336 67 1314 56 1304 56C1297 56 1291 65 1291 76C1291 81 1292 92 1293 96L1359 372C1366 401 1370 429 1370 446C1370 469 1359 482 1339 482C1297 482 1228 444 1169 389C1131 354 1103 320 1051 247L1089 408C1093 426 1095 438 1095 449C1095 470 1087 482 1072 482C1051 482 1012 460 939 408ZM1770 111L1746 94C1693 56 1645 36 1609 36C1562 36 1533 73 1533 133C1533 158 1536 185 1541 214C1558 218 1667 248 1692 259C1777 296 1816 342 1816 404C1816 451 1782 482 1732 482C1664 496 1554 423 1517 349C1487 299 1457 180 1457 113C1457 35 1501 -11 1573 -11C1630 -11 1686 17 1778 92ZM1555 274C1572 343 1592 386 1621 412C1639 428 1670 440 1694 440C1723 440 1742 420 1742 388C1742 344 1707 297 1655 272C1627 258 1591 247 1546 237ZM2198 365C2201 403 2206 435 2214 476C2203 481 2199 482 2194 482C2163 482 2132 458 2096 407C2057 351 2018 291 2002 256L2034 408C2038 425 2040 438 2040 450C2040 470 2032 482 2017 482C1996 482 1958 461 1884 408L1856 388L1863 368L1895 389C1923 407 1934 412 1943 412C1953 412 1960 403 1960 390C1960 332 1917 126 1877 -2L1887 -9C1902 -4 1918 -1 1941 4L1954 6L1980 126C1998 209 2021 262 2065 319C2099 363 2126 384 2148 384C2163 384 2173 379 2184 365ZM2489 204L2460 77C2456 60 2454 42 2454 26C2454 4 2463 -9 2478 -9C2501 -9 2542 17 2624 85L2617 106C2593 86 2564 59 2542 59C2533 59 2527 68 2527 82C2527 87 2527 90 2528 93L2620 472L2610 481L2577 463C2536 478 2519 482 2492 482C2464 482 2444 477 2417 464C2355 433 2322 403 2297 354C2253 265 2222 145 2222 67C2222 23 2237 -11 2256 -11C2293 -11 2373 41 2489 204ZM2537 414C2515 305 2496 253 2462 201C2405 117 2344 59 2312 59C2300 59 2294 72 2294 99C2294 163 2322 280 2357 360C2381 415 2404 433 2452 433C2475 433 2493 429 2537 414ZM2912 722L2900 733C2848 707 2812 698 2740 691L2736 670L2784 670C2808 670 2818 663 2818 648C2818 645 2818 640 2815 622C2804 567 2731 182 2716 132C2703 82 2697 52 2697 31C2697 6 2708 -9 2727 -9C2753 -9 2789 12 2887 85L2877 103L2851 86C2822 67 2800 56 2790 56C2783 56 2777 66 2777 76C2777 82 2778 89 2781 104ZM2972 388L2979 368L3011 389C3048 412 3051 414 3058 414C3068 414 3076 404 3076 391C3076 384 3072 361 3068 347L3002 107C2994 76 2989 49 2989 30C2989 6 3000 -9 3019 -9C3045 -9 3081 12 3179 85L3169 103L3143 86C3114 67 3091 56 3082 56C3075 56 3069 66 3069 76C3069 86 3071 95 3076 116L3153 420C3157 437 3159 448 3159 456C3159 473 3150 482 3134 482C3112 482 3075 461 3000 408ZM3166 712C3137 712 3108 679 3108 645C3108 620 3123 604 3147 604C3178 604 3202 633 3202 671C3202 695 3187 712 3166 712ZM3537 -11C3549 -11 3558 -9 3587 -1C3598 61 3606 95 3617 142L3595 142L3573 82C3567 64 3555 57 3534 57C3522 57 3506 59 3485 64L3467 68C3434 75 3400 80 3381 80C3349 80 3322 74 3286 59L3625 441L3631 473L3622 482L3599 459C3589 449 3579 445 3565 445C3531 445 3479 453 3431 466L3413 471C3385 478 3365 482 3351 482C3334 482 3314 479 3290 472L3258 350L3279 350L3309 408C3326 412 3335 413 3348 413C3389 413 3421 398 3474 398C3510 398 3534 404 3567 421L3214 21L3223 -6C3252 17 3279 26 3314 26C3377 26 3468 -11 3537 -11ZM3929 204L3900 77C3896 60 3894 42 3894 26C3894 4 3903 -9 3918 -9C3941 -9 3982 17 4064 85L4057 106C4033 86 4004 59 3982 59C3973 59 3967 68 3967 82C3967 87 3967 90 3968 93L4060 472L4050 481L4017 463C3976 478 3959 482 3932 482C3904 482 3884 477 3857 464C3795 433 3762 403 3737 354C3693 265 3662 145 3662 67C3662 23 3677 -11 3696 -11C3733 -11 3813 41 3929 204ZM3977 414C3955 305 3936 253 3902 201C3845 117 3784 59 3752 59C3740 59 3734 72 3734 99C3734 163 3762 280 3797 360C3821 415 3844 433 3892 433C3915 433 3933 429 3977 414ZM4226 390L4170 107C4169 99 4157 61 4157 31C4157 6 4168 -9 4187 -9C4222 -9 4257 11 4335 74L4366 99L4356 117L4311 86C4282 66 4262 56 4251 56C4242 56 4237 64 4237 76C4237 102 4251 183 4280 328L4293 390L4400 390L4411 440C4373 436 4339 434 4301 434C4317 528 4328 577 4346 631L4335 646C4315 634 4288 622 4257 610L4232 440C4188 419 4162 408 4144 403L4142 390ZM4467 388L4474 368L4506 389C4543 412 4546 414 4553 414C4563 414 4571 404 4571 391C4571 384 4567 361 4563 347L4497 107C4489 76 4484 49 4484 30C4484 6 4495 -9 4514 -9C4540 -9 4576 12 4674 85L4664 103L4638 86C4609 67 4586 56 4577 56C4570 56 4564 66 4564 76C4564 86 4566 95 4571 116L4648 420C4652 437 4654 448 4654 456C4654 473 4645 482 4629 482C4607 482 4570 461 4495 408ZM4661 712C4632 712 4603 679 4603 645C4603 620 4618 604 4642 604C4673 604 4697 633 4697 671C4697 695 4682 712 4661 712ZM4727 152C4727 46 4772 -11 4855 -11C4910 -11 4970 15 5015 57C5077 116 5121 230 5121 331C5121 425 5071 482 4988 482C4884 482 4727 382 4727 152ZM4951 444C5012 444 5045 399 5045 315C5045 219 5014 113 4970 60C4952 39 4926 27 4895 27C4837 27 4803 72 4803 151C4803 264 4842 387 4891 427C4904 438 4927 444 4951 444ZM5177 388L5184 368L5216 389C5253 412 5256 414 5263 414C5274 414 5281 404 5281 389C5281 338 5240 145 5199 2L5206 -9C5231 -2 5254 4 5276 8C5295 134 5316 199 5362 268C5416 352 5491 414 5536 414C5547 414 5553 405 5553 390C5553 372 5550 351 5542 319L5490 107C5481 70 5477 47 5477 31C5477 6 5488 -9 5507 -9C5533 -9 5569 12 5667 85L5657 103L5631 86C5602 67 5580 56 5570 56C5563 56 5557 65 5557 76C5557 81 5558 92 5559 96L5625 372C5632 401 5636 429 5636 446C5636 469 5625 482 5605 482C5563 482 5494 444 5435 389C5397 354 5369 320 5317 247L5355 408C5359 426 5361 438 5361 449C5361 470 5353 482 5338 482C5317 482 5278 460 5205 408Z" stroke="rgb(0, 0, 0)" stroke-width="8" fill="rgb(0, 0, 0)" style="transform:matrix(0.017,0,0,-0.017,0,0);"></path></g></g></g><g><g><g style="transform:matrix(1,0,0,1,323.2083740234375,103.66666412353516);"><path d="M251 722L239 733C187 707 151 698 79 691L75 670L123 670C147 670 157 663 157 648C157 645 157 640 154 622C143 567 70 182 55 132C42 82 36 52 36 31C36 6 47 -9 66 -9C92 -9 128 12 226 85L216 103L190 86C161 67 139 56 129 56C122 56 116 66 116 76C116 82 117 89 120 104ZM311 388L318 368L350 389C387 412 390 414 397 414C407 414 415 404 415 391C415 384 411 361 407 347L341 107C333 76 328 49 328 30C328 6 339 -9 358 -9C384 -9 420 12 518 85L508 103L482 86C453 67 430 56 421 56C414 56 408 66 408 76C408 86 410 95 415 116L492 420C496 437 498 448 498 456C498 473 489 482 473 482C451 482 414 461 339 408ZM505 712C476 712 447 679 447 645C447 620 462 604 486 604C517 604 541 633 541 671C541 695 526 712 505 712ZM1284 103L1258 86C1229 67 1207 56 1197 56C1190 56 1184 65 1184 76C1184 86 1186 95 1191 116L1266 413C1270 430 1273 446 1273 454C1273 471 1263 482 1247 482C1218 482 1180 464 1119 421C1056 376 1021 341 972 272L1002 409C1006 429 1009 444 1009 451C1009 470 999 482 983 482C953 482 907 460 852 418C808 384 788 363 723 275L756 408C760 424 762 439 762 451C762 470 753 482 739 482C718 482 680 461 606 408L578 388L585 368C622 391 657 414 664 414C675 414 682 404 682 389C682 338 641 145 600 2L603 -9L671 6L693 108C717 219 744 278 799 338C841 384 886 414 914 414C921 414 925 406 925 393C925 358 903 244 862 69L846 2L851 -9L920 6L941 113C957 194 991 269 1035 318C1090 379 1140 414 1172 414C1180 414 1185 405 1185 389C1185 365 1182 351 1160 264C1120 105 1104 84 1104 31C1104 6 1115 -9 1134 -9C1160 -9 1196 12 1294 85ZM1365 388L1372 368L1404 389C1441 412 1444 414 1451 414C1461 414 1469 404 1469 391C1469 384 1465 361 1461 347L1395 107C1387 76 1382 49 1382 30C1382 6 1393 -9 1412 -9C1438 -9 1474 12 1572 85L1562 103L1536 86C1507 67 1484 56 1475 56C1468 56 1462 66 1462 76C1462 86 1464 95 1469 116L1546 420C1550 437 1552 448 1552 456C1552 473 1543 482 1527 482C1505 482 1468 461 1393 408ZM1559 712C1530 712 1501 679 1501 645C1501 620 1516 604 1540 604C1571 604 1595 633 1595 671C1595 695 1580 712 1559 712ZM1733 390L1677 107C1676 99 1664 61 1664 31C1664 6 1675 -9 1694 -9C1729 -9 1764 11 1842 74L1873 99L1863 117L1818 86C1789 66 1769 56 1758 56C1749 56 1744 64 1744 76C1744 102 1758 183 1787 328L1800 390L1907 390L1918 440C1880 436 1846 434 1808 434C1824 528 1835 577 1853 631L1842 646C1822 634 1795 622 1764 610L1739 440C1695 419 1669 408 1651 403L1649 390ZM1971 148C1966 97 1960 62 1949 16C1987 -2 2021 -11 2056 -11C2105 -11 2151 7 2202 47C2253 87 2274 124 2274 174C2274 228 2242 257 2168 271L2125 279C2065 290 2046 307 2046 348C2046 401 2091 442 2148 442C2189 442 2227 424 2243 397L2243 342L2266 342C2270 377 2274 404 2285 455C2246 474 2218 482 2185 482C2133 482 2072 452 2024 404C1998 377 1987 352 1987 316C1987 260 2018 228 2084 215L2147 203C2191 195 2207 177 2207 138C2207 73 2161 29 2090 29C2055 29 2024 40 1996 64L1996 148Z" stroke="rgb(0, 0, 0)" stroke-width="8" fill="rgb(0, 0, 0)" style="transform:matrix(0.017,0,0,-0.017,0,0);"></path></g></g></g><g><g><g style="transform:matrix(1,0,0,1,376.27606201171875,154.33333587646484);"><path d="M34 388L41 368L73 389C110 412 113 414 120 414C130 414 138 404 138 391C138 384 134 361 130 347L64 107C56 76 51 49 51 30C51 6 62 -9 81 -9C107 -9 143 12 241 85L231 103L205 86C176 67 153 56 144 56C137 56 131 66 131 76C131 86 133 95 138 116L215 420C219 437 221 448 221 456C221 473 212 482 196 482C174 482 137 461 62 408ZM228 712C199 712 170 679 170 645C170 620 185 604 209 604C240 604 264 633 264 671C264 695 249 712 228 712ZM301 388L308 368L340 389C377 412 380 414 387 414C398 414 405 404 405 389C405 338 364 145 323 2L330 -9C355 -2 378 4 400 8C419 134 440 199 486 268C540 352 615 414 660 414C671 414 677 405 677 390C677 372 674 351 666 319L614 107C605 70 601 47 601 31C601 6 612 -9 631 -9C657 -9 693 12 791 85L781 103L755 86C726 67 704 56 694 56C687 56 681 65 681 76C681 81 682 92 683 96L749 372C756 401 760 429 760 446C760 469 749 482 729 482C687 482 618 444 559 389C521 354 493 320 441 247L479 408C483 426 485 438 485 449C485 470 477 482 462 482C441 482 402 460 329 408ZM866 388L873 368L905 389C942 412 945 414 952 414C962 414 970 404 970 391C970 384 966 361 962 347L896 107C888 76 883 49 883 30C883 6 894 -9 913 -9C939 -9 975 12 1073 85L1063 103L1037 86C1008 67 985 56 976 56C969 56 963 66 963 76C963 86 965 95 970 116L1047 420C1051 437 1053 448 1053 456C1053 473 1044 482 1028 482C1006 482 969 461 894 408ZM1060 712C1031 712 1002 679 1002 645C1002 620 1017 604 1041 604C1072 604 1096 633 1096 671C1096 695 1081 712 1060 712ZM1234 390L1178 107C1177 99 1165 61 1165 31C1165 6 1176 -9 1195 -9C1230 -9 1265 11 1343 74L1374 99L1364 117L1319 86C1290 66 1270 56 1259 56C1250 56 1245 64 1245 76C1245 102 1259 183 1288 328L1301 390L1408 390L1419 440C1381 436 1347 434 1309 434C1325 528 1336 577 1354 631L1343 646C1323 634 1296 622 1265 610L1240 440C1196 419 1170 408 1152 403L1150 390ZM1475 388L1482 368L1514 389C1551 412 1554 414 1561 414C1571 414 1579 404 1579 391C1579 384 1575 361 1571 347L1505 107C1497 76 1492 49 1492 30C1492 6 1503 -9 1522 -9C1548 -9 1584 12 1682 85L1672 103L1646 86C1617 67 1594 56 1585 56C1578 56 1572 66 1572 76C1572 86 1574 95 1579 116L1656 420C1660 437 1662 448 1662 456C1662 473 1653 482 1637 482C1615 482 1578 461 1503 408ZM1669 712C1640 712 1611 679 1611 645C1611 620 1626 604 1650 604C1681 604 1705 633 1705 671C1705 695 1690 712 1669 712ZM1989 204L1960 77C1956 60 1954 42 1954 26C1954 4 1963 -9 1978 -9C2001 -9 2042 17 2124 85L2117 106C2093 86 2064 59 2042 59C2033 59 2027 68 2027 82C2027 87 2027 90 2028 93L2120 472L2110 481L2077 463C2036 478 2019 482 1992 482C1964 482 1944 477 1917 464C1855 433 1822 403 1797 354C1753 265 1722 145 1722 67C1722 23 1737 -11 1756 -11C1793 -11 1873 41 1989 204ZM2037 414C2015 305 1996 253 1962 201C1905 117 1844 59 1812 59C1800 59 1794 72 1794 99C1794 163 1822 280 1857 360C1881 415 1904 433 1952 433C1975 433 1993 429 2037 414ZM2412 722L2400 733C2348 707 2312 698 2240 691L2236 670L2284 670C2308 670 2318 663 2318 648C2318 645 2318 640 2315 622C2304 567 2231 182 2216 132C2203 82 2197 52 2197 31C2197 6 2208 -9 2227 -9C2253 -9 2289 12 2387 85L2377 103L2351 86C2322 67 2300 56 2290 56C2283 56 2277 66 2277 76C2277 82 2278 89 2281 104Z" stroke="rgb(0, 0, 0)" stroke-width="8" fill="rgb(0, 0, 0)" style="transform:matrix(0.017,0,0,-0.017,0,0);"></path></g></g><g><g style="transform:matrix(1,0,0,1,376.27606201171875,175.00000762939453);"><path d="M17 152C17 46 62 -11 145 -11C200 -11 260 15 305 57C367 116 411 230 411 331C411 425 361 482 278 482C174 482 17 382 17 152ZM241 444C302 444 335 399 335 315C335 219 304 113 260 60C242 39 216 27 185 27C127 27 93 72 93 151C93 264 132 387 181 427C194 438 217 444 241 444ZM678 722L666 733C614 707 578 698 506 691L502 670L550 670C574 670 584 663 584 646C584 639 583 628 582 622L481 71C480 68 480 64 480 61C480 22 528 -11 583 -11C620 -11 671 8 714 39C810 107 876 244 876 376C876 414 867 453 855 468C848 477 835 482 820 482C796 482 766 474 738 460C687 433 654 403 592 324ZM765 424C791 424 804 401 804 352C804 288 783 202 753 137C720 68 680 36 626 36C580 36 555 59 555 101C555 135 570 276 651 361C684 395 736 424 765 424ZM1099 351L999 -144C988 -196 970 -231 952 -231C938 -231 920 -225 899 -212L891 -269C901 -274 914 -276 929 -276C969 -276 1009 -233 1045 -152C1065 -107 1079 -57 1107 70L1183 420C1187 438 1189 451 1189 457C1189 473 1180 482 1164 482C1142 482 1105 461 1030 408L1002 388L1009 368L1041 389C1078 412 1081 414 1088 414C1098 414 1106 404 1106 391C1106 382 1099 356 1099 351ZM1190 712C1161 712 1132 679 1132 645C1132 620 1147 604 1171 604C1202 604 1226 633 1226 671C1226 695 1211 712 1190 712ZM1560 111L1536 94C1483 56 1435 36 1399 36C1352 36 1323 73 1323 133C1323 158 1326 185 1331 214C1348 218 1457 248 1482 259C1567 296 1606 342 1606 404C1606 451 1572 482 1522 482C1454 496 1344 423 1307 349C1277 299 1247 180 1247 113C1247 35 1291 -11 1363 -11C1420 -11 1476 17 1568 92ZM1345 274C1362 343 1382 386 1411 412C1429 428 1460 440 1484 440C1513 440 1532 420 1532 388C1532 344 1497 297 1445 272C1417 258 1381 247 1336 237ZM1962 330L1985 330C1993 395 2000 432 2009 458C1985 473 1950 482 1913 482C1868 483 1795 463 1738 400C1684 352 1645 241 1645 136C1645 40 1687 -11 1767 -11C1821 -11 1869 9 1924 54L1974 95L1966 115L1951 105C1879 57 1841 40 1806 40C1750 40 1721 80 1721 159C1721 267 1756 371 1805 409C1826 425 1850 433 1881 433C1926 433 1962 414 1962 390ZM2151 390L2095 107C2094 99 2082 61 2082 31C2082 6 2093 -9 2112 -9C2147 -9 2182 11 2260 74L2291 99L2281 117L2236 86C2207 66 2187 56 2176 56C2167 56 2162 64 2162 76C2162 102 2176 183 2205 328L2218 390L2325 390L2336 440C2298 436 2264 434 2226 434C2242 528 2253 577 2271 631L2260 646C2240 634 2213 622 2182 610L2157 440C2113 419 2087 408 2069 403L2067 390Z" stroke="rgb(0, 0, 0)" stroke-width="8" fill="rgb(0, 0, 0)" style="transform:matrix(0.017,0,0,-0.017,0,0);"></path></g></g></g><g><g><g style="transform:matrix(1,0,0,1,275.78125,155.33333587646484);"><path d="M125 390L69 107C68 99 56 61 56 31C56 6 67 -9 86 -9C121 -9 156 11 234 74L265 99L255 117L210 86C181 66 161 56 150 56C141 56 136 64 136 76C136 102 150 183 179 328L192 390L299 390L310 440C272 436 238 434 200 434C216 528 227 577 245 631L234 646C214 634 187 622 156 610L131 440C87 419 61 408 43 403L41 390ZM660 111L636 94C583 56 535 36 499 36C452 36 423 73 423 133C423 158 426 185 431 214C448 218 557 248 582 259C667 296 706 342 706 404C706 451 672 482 622 482C554 496 444 423 407 349C377 299 347 180 347 113C347 35 391 -11 463 -11C520 -11 576 17 668 92ZM445 274C462 343 482 386 511 412C529 428 560 440 584 440C613 440 632 420 632 388C632 344 597 297 545 272C517 258 481 247 436 237ZM1088 365C1091 403 1096 435 1104 476C1093 481 1089 482 1084 482C1053 482 1022 458 986 407C947 351 908 291 892 256L924 408C928 425 930 438 930 450C930 470 922 482 907 482C886 482 848 461 774 408L746 388L753 368L785 389C813 407 824 412 833 412C843 412 850 403 850 390C850 332 807 126 767 -2L777 -9C792 -4 808 -1 831 4L844 6L870 126C888 209 911 262 955 319C989 363 1016 384 1038 384C1053 384 1063 379 1074 365ZM1838 103L1812 86C1783 67 1761 56 1751 56C1744 56 1738 65 1738 76C1738 86 1740 95 1745 116L1820 413C1824 430 1827 446 1827 454C1827 471 1817 482 1801 482C1772 482 1734 464 1673 421C1610 376 1575 341 1526 272L1556 409C1560 429 1563 444 1563 451C1563 470 1553 482 1537 482C1507 482 1461 460 1406 418C1362 384 1342 363 1277 275L1310 408C1314 424 1316 439 1316 451C1316 470 1307 482 1293 482C1272 482 1234 461 1160 408L1132 388L1139 368C1176 391 1211 414 1218 414C1229 414 1236 404 1236 389C1236 338 1195 145 1154 2L1157 -9L1225 6L1247 108C1271 219 1298 278 1353 338C1395 384 1440 414 1468 414C1475 414 1479 406 1479 393C1479 358 1457 244 1416 69L1400 2L1405 -9L1474 6L1495 113C1511 194 1545 269 1589 318C1644 379 1694 414 1726 414C1734 414 1739 405 1739 389C1739 365 1736 351 1714 264C1674 105 1658 84 1658 31C1658 6 1669 -9 1688 -9C1714 -9 1750 12 1848 85ZM1919 388L1926 368L1958 389C1995 412 1998 414 2005 414C2015 414 2023 404 2023 391C2023 384 2019 361 2015 347L1949 107C1941 76 1936 49 1936 30C1936 6 1947 -9 1966 -9C1992 -9 2028 12 2126 85L2116 103L2090 86C2061 67 2038 56 2029 56C2022 56 2016 66 2016 76C2016 86 2018 95 2023 116L2100 420C2104 437 2106 448 2106 456C2106 473 2097 482 2081 482C2059 482 2022 461 1947 408ZM2113 712C2084 712 2055 679 2055 645C2055 620 2070 604 2094 604C2125 604 2149 633 2149 671C2149 695 2134 712 2113 712ZM2186 388L2193 368L2225 389C2262 412 2265 414 2272 414C2283 414 2290 404 2290 389C2290 338 2249 145 2208 2L2215 -9C2240 -2 2263 4 2285 8C2304 134 2325 199 2371 268C2425 352 2500 414 2545 414C2556 414 2562 405 2562 390C2562 372 2559 351 2551 319L2499 107C2490 70 2486 47 2486 31C2486 6 2497 -9 2516 -9C2542 -9 2578 12 2676 85L2666 103L2640 86C2611 67 2589 56 2579 56C2572 56 2566 65 2566 76C2566 81 2567 92 2568 96L2634 372C2641 401 2645 429 2645 446C2645 469 2634 482 2614 482C2572 482 2503 444 2444 389C2406 354 2378 320 2326 247L2364 408C2368 426 2370 438 2370 449C2370 470 2362 482 2347 482C2326 482 2287 460 2214 408ZM2988 204L2959 77C2955 60 2953 42 2953 26C2953 4 2962 -9 2977 -9C3000 -9 3041 17 3123 85L3116 106C3092 86 3063 59 3041 59C3032 59 3026 68 3026 82C3026 87 3026 90 3027 93L3119 472L3109 481L3076 463C3035 478 3018 482 2991 482C2963 482 2943 477 2916 464C2854 433 2821 403 2796 354C2752 265 2721 145 2721 67C2721 23 2736 -11 2755 -11C2792 -11 2872 41 2988 204ZM3036 414C3014 305 2995 253 2961 201C2904 117 2843 59 2811 59C2799 59 2793 72 2793 99C2793 163 2821 280 2856 360C2880 415 2903 433 2951 433C2974 433 2992 429 3036 414ZM3411 722L3399 733C3347 707 3311 698 3239 691L3235 670L3283 670C3307 670 3317 663 3317 648C3317 645 3317 640 3314 622C3303 567 3230 182 3215 132C3202 82 3196 52 3196 31C3196 6 3207 -9 3226 -9C3252 -9 3288 12 3386 85L3376 103L3350 86C3321 67 3299 56 3289 56C3282 56 3276 66 3276 76C3276 82 3277 89 3280 104Z" stroke="rgb(0, 0, 0)" stroke-width="8" fill="rgb(0, 0, 0)" style="transform:matrix(0.017,0,0,-0.017,0,0);"></path></g></g><g><g style="transform:matrix(1,0,0,1,275.78125,176.00000762939453);"><path d="M515 152C515 46 560 -11 643 -11C698 -11 758 15 803 57C865 116 909 230 909 331C909 425 859 482 776 482C672 482 515 382 515 152ZM739 444C800 444 833 399 833 315C833 219 802 113 758 60C740 39 714 27 683 27C625 27 591 72 591 151C591 264 630 387 679 427C692 438 715 444 739 444ZM1176 722L1164 733C1112 707 1076 698 1004 691L1000 670L1048 670C1072 670 1082 663 1082 646C1082 639 1081 628 1080 622L979 71C978 68 978 64 978 61C978 22 1026 -11 1081 -11C1118 -11 1169 8 1212 39C1308 107 1374 244 1374 376C1374 414 1365 453 1353 468C1346 477 1333 482 1318 482C1294 482 1264 474 1236 460C1185 433 1152 403 1090 324ZM1263 424C1289 424 1302 401 1302 352C1302 288 1281 202 1251 137C1218 68 1178 36 1124 36C1078 36 1053 59 1053 101C1053 135 1068 276 1149 361C1182 395 1234 424 1263 424ZM1597 351L1497 -144C1486 -196 1468 -231 1450 -231C1436 -231 1418 -225 1397 -212L1389 -269C1399 -274 1412 -276 1427 -276C1467 -276 1507 -233 1543 -152C1563 -107 1577 -57 1605 70L1681 420C1685 438 1687 451 1687 457C1687 473 1678 482 1662 482C1640 482 1603 461 1528 408L1500 388L1507 368L1539 389C1576 412 1579 414 1586 414C1596 414 1604 404 1604 391C1604 382 1597 356 1597 351ZM1688 712C1659 712 1630 679 1630 645C1630 620 1645 604 1669 604C1700 604 1724 633 1724 671C1724 695 1709 712 1688 712ZM2058 111L2034 94C1981 56 1933 36 1897 36C1850 36 1821 73 1821 133C1821 158 1824 185 1829 214C1846 218 1955 248 1980 259C2065 296 2104 342 2104 404C2104 451 2070 482 2020 482C1952 496 1842 423 1805 349C1775 299 1745 180 1745 113C1745 35 1789 -11 1861 -11C1918 -11 1974 17 2066 92ZM1843 274C1860 343 1880 386 1909 412C1927 428 1958 440 1982 440C2011 440 2030 420 2030 388C2030 344 1995 297 1943 272C1915 258 1879 247 1834 237ZM2460 330L2483 330C2491 395 2498 432 2507 458C2483 473 2448 482 2411 482C2366 483 2293 463 2236 400C2182 352 2143 241 2143 136C2143 40 2185 -11 2265 -11C2319 -11 2367 9 2422 54L2472 95L2464 115L2449 105C2377 57 2339 40 2304 40C2248 40 2219 80 2219 159C2219 267 2254 371 2303 409C2324 425 2348 433 2379 433C2424 433 2460 414 2460 390ZM2649 390L2593 107C2592 99 2580 61 2580 31C2580 6 2591 -9 2610 -9C2645 -9 2680 11 2758 74L2789 99L2779 117L2734 86C2705 66 2685 56 2674 56C2665 56 2660 64 2660 76C2660 102 2674 183 2703 328L2716 390L2823 390L2834 440C2796 436 2762 434 2724 434C2740 528 2751 577 2769 631L2758 646C2738 634 2711 622 2680 610L2655 440C2611 419 2585 408 2567 403L2565 390Z" stroke="rgb(0, 0, 0)" stroke-width="8" fill="rgb(0, 0, 0)" style="transform:matrix(0.017,0,0,-0.017,0,0);"></path></g></g></g><g><g><g style="transform:matrix(1,0,0,1,129.546875,261.66666412353516);"><path d="M730 103L704 86C675 67 653 56 643 56C636 56 630 65 630 76C630 86 632 95 637 116L712 413C716 430 719 446 719 454C719 471 709 482 693 482C664 482 626 464 565 421C502 376 467 341 418 272L448 409C452 429 455 444 455 451C455 470 445 482 429 482C399 482 353 460 298 418C254 384 234 363 169 275L202 408C206 424 208 439 208 451C208 470 199 482 185 482C164 482 126 461 52 408L24 388L31 368C68 391 103 414 110 414C121 414 128 404 128 389C128 338 87 145 46 2L49 -9L117 6L139 108C163 219 190 278 245 338C287 384 332 414 360 414C367 414 371 406 371 393C371 358 349 244 308 69L292 2L297 -9L366 6L387 113C403 194 437 269 481 318C536 379 586 414 618 414C626 414 631 405 631 389C631 365 628 351 606 264C566 105 550 84 550 31C550 6 561 -9 580 -9C606 -9 642 12 740 85ZM794 152C794 46 839 -11 922 -11C977 -11 1037 15 1082 57C1144 116 1188 230 1188 331C1188 425 1138 482 1055 482C951 482 794 382 794 152ZM1018 444C1079 444 1112 399 1112 315C1112 219 1081 113 1037 60C1019 39 993 27 962 27C904 27 870 72 870 151C870 264 909 387 958 427C971 438 994 444 1018 444ZM1244 388L1251 368L1283 389C1320 412 1323 414 1330 414C1341 414 1348 404 1348 389C1348 338 1307 145 1266 2L1273 -9C1298 -2 1321 4 1343 8C1362 134 1383 199 1429 268C1483 352 1558 414 1603 414C1614 414 1620 405 1620 390C1620 372 1617 351 1609 319L1557 107C1548 70 1544 47 1544 31C1544 6 1555 -9 1574 -9C1600 -9 1636 12 1734 85L1724 103L1698 86C1669 67 1647 56 1637 56C1630 56 1624 65 1624 76C1624 81 1625 92 1626 96L1692 372C1699 401 1703 429 1703 446C1703 469 1692 482 1672 482C1630 482 1561 444 1502 389C1464 354 1436 320 1384 247L1422 408C1426 426 1428 438 1428 449C1428 470 1420 482 1405 482C1384 482 1345 460 1272 408ZM1792 152C1792 46 1837 -11 1920 -11C1975 -11 2035 15 2080 57C2142 116 2186 230 2186 331C2186 425 2136 482 2053 482C1949 482 1792 382 1792 152ZM2016 444C2077 444 2110 399 2110 315C2110 219 2079 113 2035 60C2017 39 1991 27 1960 27C1902 27 1868 72 1868 151C1868 264 1907 387 1956 427C1969 438 1992 444 2016 444ZM2252 388L2259 368L2291 389C2328 412 2331 414 2338 414C2348 414 2356 404 2356 391C2356 384 2352 361 2348 347L2282 107C2274 76 2269 49 2269 30C2269 6 2280 -9 2299 -9C2325 -9 2361 12 2459 85L2449 103L2423 86C2394 67 2371 56 2362 56C2355 56 2349 66 2349 76C2349 86 2351 95 2356 116L2433 420C2437 437 2439 448 2439 456C2439 473 2430 482 2414 482C2392 482 2355 461 2280 408ZM2446 712C2417 712 2388 679 2388 645C2388 620 2403 604 2427 604C2458 604 2482 633 2482 671C2482 695 2467 712 2446 712ZM2978 722L2966 733C2914 707 2878 698 2806 691L2802 670L2850 670C2874 670 2884 663 2884 646C2884 638 2883 629 2882 622L2854 468C2824 477 2797 482 2772 482C2703 482 2609 410 2563 323C2532 265 2512 170 2512 86C2512 21 2527 -11 2556 -11C2583 -11 2620 6 2654 33C2708 77 2741 116 2808 217L2785 126C2774 82 2769 50 2769 24C2769 3 2778 -9 2795 -9C2812 -9 2836 3 2870 28L2951 88L2941 107L2897 76C2883 66 2867 59 2858 59C2850 59 2844 68 2844 82C2844 90 2845 99 2852 128ZM2609 59C2593 59 2584 73 2584 98C2584 224 2630 380 2679 418C2692 428 2711 433 2738 433C2782 433 2811 427 2844 410L2832 351C2795 171 2654 59 2609 59Z" stroke="rgb(0, 0, 0)" stroke-width="8" fill="rgb(0, 0, 0)" style="transform:matrix(0.017,0,0,-0.017,0,0);"></path></g></g></g><g><g><g style="transform:matrix(1,0,0,1,130.546875,314.3333511352539);"><path d="M843 437L827 437L848 549C864 635 892 673 938 673C968 673 995 658 1010 634L1020 638C1025 654 1035 685 1043 705L1048 720C1032 727 1001 733 978 733C967 733 951 730 943 726C919 715 837 654 814 630C792 608 780 578 769 521L754 442C713 422 693 414 668 405L663 383L744 383L735 327C705 132 668 -54 646 -123C628 -182 598 -213 562 -213C539 -213 528 -206 510 -184L496 -188C492 -211 478 -259 473 -268C482 -273 497 -276 508 -276C549 -276 603 -245 642 -198C713 -114 733 -18 817 383L921 383C925 402 932 425 938 439L934 446C905 439 906 437 843 437ZM1416 365C1419 403 1424 435 1432 476C1421 481 1417 482 1412 482C1381 482 1350 458 1314 407C1275 351 1236 291 1220 256L1252 408C1256 425 1258 438 1258 450C1258 470 1250 482 1235 482C1214 482 1176 461 1102 408L1074 388L1081 368L1113 389C1141 407 1152 412 1161 412C1171 412 1178 403 1178 390C1178 332 1135 126 1095 -2L1105 -9C1120 -4 1136 -1 1159 4L1172 6L1198 126C1216 209 1239 262 1283 319C1317 363 1344 384 1366 384C1381 384 1391 379 1402 365ZM1764 111L1740 94C1687 56 1639 36 1603 36C1556 36 1527 73 1527 133C1527 158 1530 185 1535 214C1552 218 1661 248 1686 259C1771 296 1810 342 1810 404C1810 451 1776 482 1726 482C1658 496 1548 423 1511 349C1481 299 1451 180 1451 113C1451 35 1495 -11 1567 -11C1624 -11 1680 17 1772 92ZM1549 274C1566 343 1586 386 1615 412C1633 428 1664 440 1688 440C1717 440 1736 420 1736 388C1736 344 1701 297 1649 272C1621 258 1585 247 1540 237ZM2152 111L2128 94C2075 56 2027 36 1991 36C1944 36 1915 73 1915 133C1915 158 1918 185 1923 214C1940 218 2049 248 2074 259C2159 296 2198 342 2198 404C2198 451 2164 482 2114 482C2046 496 1936 423 1899 349C1869 299 1839 180 1839 113C1839 35 1883 -11 1955 -11C2012 -11 2068 17 2160 92ZM1937 274C1954 343 1974 386 2003 412C2021 428 2052 440 2076 440C2105 440 2124 420 2124 388C2124 344 2089 297 2037 272C2009 258 1973 247 1928 237Z" stroke="rgb(0, 0, 0)" stroke-width="8" fill="rgb(0, 0, 0)" style="transform:matrix(0.017,0,0,-0.017,0,0);"></path></g></g><g><g style="transform:matrix(1,0,0,1,130.546875,335.00000762939453);"><path d="M730 103L704 86C675 67 653 56 643 56C636 56 630 65 630 76C630 86 632 95 637 116L712 413C716 430 719 446 719 454C719 471 709 482 693 482C664 482 626 464 565 421C502 376 467 341 418 272L448 409C452 429 455 444 455 451C455 470 445 482 429 482C399 482 353 460 298 418C254 384 234 363 169 275L202 408C206 424 208 439 208 451C208 470 199 482 185 482C164 482 126 461 52 408L24 388L31 368C68 391 103 414 110 414C121 414 128 404 128 389C128 338 87 145 46 2L49 -9L117 6L139 108C163 219 190 278 245 338C287 384 332 414 360 414C367 414 371 406 371 393C371 358 349 244 308 69L292 2L297 -9L366 6L387 113C403 194 437 269 481 318C536 379 586 414 618 414C626 414 631 405 631 389C631 365 628 351 606 264C566 105 550 84 550 31C550 6 561 -9 580 -9C606 -9 642 12 740 85ZM794 152C794 46 839 -11 922 -11C977 -11 1037 15 1082 57C1144 116 1188 230 1188 331C1188 425 1138 482 1055 482C951 482 794 382 794 152ZM1018 444C1079 444 1112 399 1112 315C1112 219 1081 113 1037 60C1019 39 993 27 962 27C904 27 870 72 870 151C870 264 909 387 958 427C971 438 994 444 1018 444ZM1244 388L1251 368L1283 389C1320 412 1323 414 1330 414C1341 414 1348 404 1348 389C1348 338 1307 145 1266 2L1273 -9C1298 -2 1321 4 1343 8C1362 134 1383 199 1429 268C1483 352 1558 414 1603 414C1614 414 1620 405 1620 390C1620 372 1617 351 1609 319L1557 107C1548 70 1544 47 1544 31C1544 6 1555 -9 1574 -9C1600 -9 1636 12 1734 85L1724 103L1698 86C1669 67 1647 56 1637 56C1630 56 1624 65 1624 76C1624 81 1625 92 1626 96L1692 372C1699 401 1703 429 1703 446C1703 469 1692 482 1672 482C1630 482 1561 444 1502 389C1464 354 1436 320 1384 247L1422 408C1426 426 1428 438 1428 449C1428 470 1420 482 1405 482C1384 482 1345 460 1272 408ZM1792 152C1792 46 1837 -11 1920 -11C1975 -11 2035 15 2080 57C2142 116 2186 230 2186 331C2186 425 2136 482 2053 482C1949 482 1792 382 1792 152ZM2016 444C2077 444 2110 399 2110 315C2110 219 2079 113 2035 60C2017 39 1991 27 1960 27C1902 27 1868 72 1868 151C1868 264 1907 387 1956 427C1969 438 1992 444 2016 444ZM2252 388L2259 368L2291 389C2328 412 2331 414 2338 414C2348 414 2356 404 2356 391C2356 384 2352 361 2348 347L2282 107C2274 76 2269 49 2269 30C2269 6 2280 -9 2299 -9C2325 -9 2361 12 2459 85L2449 103L2423 86C2394 67 2371 56 2362 56C2355 56 2349 66 2349 76C2349 86 2351 95 2356 116L2433 420C2437 437 2439 448 2439 456C2439 473 2430 482 2414 482C2392 482 2355 461 2280 408ZM2446 712C2417 712 2388 679 2388 645C2388 620 2403 604 2427 604C2458 604 2482 633 2482 671C2482 695 2467 712 2446 712ZM2978 722L2966 733C2914 707 2878 698 2806 691L2802 670L2850 670C2874 670 2884 663 2884 646C2884 638 2883 629 2882 622L2854 468C2824 477 2797 482 2772 482C2703 482 2609 410 2563 323C2532 265 2512 170 2512 86C2512 21 2527 -11 2556 -11C2583 -11 2620 6 2654 33C2708 77 2741 116 2808 217L2785 126C2774 82 2769 50 2769 24C2769 3 2778 -9 2795 -9C2812 -9 2836 3 2870 28L2951 88L2941 107L2897 76C2883 66 2867 59 2858 59C2850 59 2844 68 2844 82C2844 90 2845 99 2852 128ZM2609 59C2593 59 2584 73 2584 98C2584 224 2630 380 2679 418C2692 428 2711 433 2738 433C2782 433 2811 427 2844 410L2832 351C2795 171 2654 59 2609 59Z" stroke="rgb(0, 0, 0)" stroke-width="8" fill="rgb(0, 0, 0)" style="transform:matrix(0.017,0,0,-0.017,0,0);"></path></g></g></g><g><g><g style="transform:matrix(1,0,0,1,221.90106201171875,261.66666412353516);"><path d="M730 103L704 86C675 67 653 56 643 56C636 56 630 65 630 76C630 86 632 95 637 116L712 413C716 430 719 446 719 454C719 471 709 482 693 482C664 482 626 464 565 421C502 376 467 341 418 272L448 409C452 429 455 444 455 451C455 470 445 482 429 482C399 482 353 460 298 418C254 384 234 363 169 275L202 408C206 424 208 439 208 451C208 470 199 482 185 482C164 482 126 461 52 408L24 388L31 368C68 391 103 414 110 414C121 414 128 404 128 389C128 338 87 145 46 2L49 -9L117 6L139 108C163 219 190 278 245 338C287 384 332 414 360 414C367 414 371 406 371 393C371 358 349 244 308 69L292 2L297 -9L366 6L387 113C403 194 437 269 481 318C536 379 586 414 618 414C626 414 631 405 631 389C631 365 628 351 606 264C566 105 550 84 550 31C550 6 561 -9 580 -9C606 -9 642 12 740 85ZM794 152C794 46 839 -11 922 -11C977 -11 1037 15 1082 57C1144 116 1188 230 1188 331C1188 425 1138 482 1055 482C951 482 794 382 794 152ZM1018 444C1079 444 1112 399 1112 315C1112 219 1081 113 1037 60C1019 39 993 27 962 27C904 27 870 72 870 151C870 264 909 387 958 427C971 438 994 444 1018 444ZM1244 388L1251 368L1283 389C1320 412 1323 414 1330 414C1341 414 1348 404 1348 389C1348 338 1307 145 1266 2L1273 -9C1298 -2 1321 4 1343 8C1362 134 1383 199 1429 268C1483 352 1558 414 1603 414C1614 414 1620 405 1620 390C1620 372 1617 351 1609 319L1557 107C1548 70 1544 47 1544 31C1544 6 1555 -9 1574 -9C1600 -9 1636 12 1734 85L1724 103L1698 86C1669 67 1647 56 1637 56C1630 56 1624 65 1624 76C1624 81 1625 92 1626 96L1692 372C1699 401 1703 429 1703 446C1703 469 1692 482 1672 482C1630 482 1561 444 1502 389C1464 354 1436 320 1384 247L1422 408C1426 426 1428 438 1428 449C1428 470 1420 482 1405 482C1384 482 1345 460 1272 408ZM2046 204L2017 77C2013 60 2011 42 2011 26C2011 4 2020 -9 2035 -9C2058 -9 2099 17 2181 85L2174 106C2150 86 2121 59 2099 59C2090 59 2084 68 2084 82C2084 87 2084 90 2085 93L2177 472L2167 481L2134 463C2093 478 2076 482 2049 482C2021 482 2001 477 1974 464C1912 433 1879 403 1854 354C1810 265 1779 145 1779 67C1779 23 1794 -11 1813 -11C1850 -11 1930 41 2046 204ZM2094 414C2072 305 2053 253 2019 201C1962 117 1901 59 1869 59C1857 59 1851 72 1851 99C1851 163 1879 280 1914 360C1938 415 1961 433 2009 433C2032 433 2050 429 2094 414ZM2701 722L2689 733C2637 707 2601 698 2529 691L2525 670L2573 670C2597 670 2607 663 2607 646C2607 638 2606 629 2605 622L2577 468C2547 477 2520 482 2495 482C2426 482 2332 410 2286 323C2255 265 2235 170 2235 86C2235 21 2250 -11 2279 -11C2306 -11 2343 6 2377 33C2431 77 2464 116 2531 217L2508 126C2497 82 2492 50 2492 24C2492 3 2501 -9 2518 -9C2535 -9 2559 3 2593 28L2674 88L2664 107L2620 76C2606 66 2590 59 2581 59C2573 59 2567 68 2567 82C2567 90 2568 99 2575 128ZM2332 59C2316 59 2307 73 2307 98C2307 224 2353 380 2402 418C2415 428 2434 433 2461 433C2505 433 2534 427 2567 410L2555 351C2518 171 2377 59 2332 59Z" stroke="rgb(0, 0, 0)" stroke-width="8" fill="rgb(0, 0, 0)" style="transform:matrix(0.017,0,0,-0.017,0,0);"></path></g></g></g><g><g><g style="transform:matrix(1,0,0,1,468.0521240234375,285.66666412353516);"><path d="M345 437L329 437L350 549C366 635 394 673 440 673C470 673 497 658 512 634L522 638C527 654 537 685 545 705L550 720C534 727 503 733 480 733C469 733 453 730 445 726C421 715 339 654 316 630C294 608 282 578 271 521L256 442C215 422 195 414 170 405L165 383L246 383L237 327C207 132 170 -54 148 -123C130 -182 100 -213 64 -213C41 -213 30 -206 12 -184L-2 -188C-6 -211 -20 -259 -25 -268C-16 -273 -1 -276 10 -276C51 -276 105 -245 144 -198C215 -114 235 -18 319 383L423 383C427 402 434 425 440 439L436 446C407 439 408 437 345 437ZM1042 473L1035 482L967 465L957 414C942 336 917 268 886 221C827 130 749 59 709 59C701 59 696 68 696 85C696 99 698 112 703 137L760 408C763 424 765 438 765 451C765 470 756 482 742 482C722 482 684 461 610 408L582 388L589 368L621 389C649 407 660 412 669 412C678 412 686 403 686 392C686 388 685 378 684 374L621 77C619 68 617 44 617 30C617 7 632 -11 652 -11C715 -11 836 101 920 239L883 97C876 73 872 46 872 31C872 6 883 -9 902 -9C928 -9 964 12 1062 85L1052 103L1026 86C1002 70 976 59 965 59C957 59 952 66 952 76C952 112 1027 416 1042 473ZM1129 388L1136 368L1168 389C1205 412 1208 414 1215 414C1226 414 1233 404 1233 389C1233 338 1192 145 1151 2L1158 -9C1183 -2 1206 4 1228 8C1247 134 1268 199 1314 268C1368 352 1443 414 1488 414C1499 414 1505 405 1505 390C1505 372 1502 351 1494 319L1442 107C1433 70 1429 47 1429 31C1429 6 1440 -9 1459 -9C1485 -9 1521 12 1619 85L1609 103L1583 86C1554 67 1532 56 1522 56C1515 56 1509 65 1509 76C1509 81 1510 92 1511 96L1577 372C1584 401 1588 429 1588 446C1588 469 1577 482 1557 482C1515 482 1446 444 1387 389C1349 354 1321 320 1269 247L1307 408C1311 426 1313 438 1313 449C1313 470 1305 482 1290 482C1269 482 1230 460 1157 408ZM2002 330L2025 330C2033 395 2040 432 2049 458C2025 473 1990 482 1953 482C1908 483 1835 463 1778 400C1724 352 1685 241 1685 136C1685 40 1727 -11 1807 -11C1861 -11 1909 9 1964 54L2014 95L2006 115L1991 105C1919 57 1881 40 1846 40C1790 40 1761 80 1761 159C1761 267 1796 371 1845 409C1866 425 1890 433 1921 433C1966 433 2002 414 2002 390ZM2191 390L2135 107C2134 99 2122 61 2122 31C2122 6 2133 -9 2152 -9C2187 -9 2222 11 2300 74L2331 99L2321 117L2276 86C2247 66 2227 56 2216 56C2207 56 2202 64 2202 76C2202 102 2216 183 2245 328L2258 390L2365 390L2376 440C2338 436 2304 434 2266 434C2282 528 2293 577 2311 631L2300 646C2280 634 2253 622 2222 610L2197 440C2153 419 2127 408 2109 403L2107 390ZM2415 152C2415 46 2460 -11 2543 -11C2598 -11 2658 15 2703 57C2765 116 2809 230 2809 331C2809 425 2759 482 2676 482C2572 482 2415 382 2415 152ZM2639 444C2700 444 2733 399 2733 315C2733 219 2702 113 2658 60C2640 39 2614 27 2583 27C2525 27 2491 72 2491 151C2491 264 2530 387 2579 427C2592 438 2615 444 2639 444ZM3209 365C3212 403 3217 435 3225 476C3214 481 3210 482 3205 482C3174 482 3143 458 3107 407C3068 351 3029 291 3013 256L3045 408C3049 425 3051 438 3051 450C3051 470 3043 482 3028 482C3007 482 2969 461 2895 408L2867 388L2874 368L2906 389C2934 407 2945 412 2954 412C2964 412 2971 403 2971 390C2971 332 2928 126 2888 -2L2898 -9C2913 -4 2929 -1 2952 4L2965 6L2991 126C3009 209 3032 262 3076 319C3110 363 3137 384 3159 384C3174 384 3184 379 3195 365Z" stroke="rgb(0, 0, 0)" stroke-width="8" fill="rgb(0, 0, 0)" style="transform:matrix(0.017,0,0,-0.017,0,0);"></path></g></g></g></svg>
</svg>
