<svg xmlns="http://www.w3.org/2000/svg" width="189.00001525878906" height="390.33038330078125" style="
        width:189.00001525878906px;
        height:390.33038330078125px;
        background: white;
        fill: none;
">
        
        <svg xmlns="http://www.w3.org/2000/svg" class="role-diagram-draw-area"><g class="shapes-region" style="stroke: black; fill: none;"><g class="composite-shape"><path class="real" d=" M3.5,356.96 C3.5,340.94 44.02,327.96 94,327.96 C143.98,327.96 184.5,340.94 184.5,356.96 C184.5,372.98 143.98,385.96 94,385.96 C44.02,385.96 3.5,372.98 3.5,356.96 Z" style="stroke-width: 1; stroke: rgb(0, 0, 0); fill: none;"/></g><g class="intersections-group"><g style="stroke: rgb(0, 0, 0); stroke-width: 1; fill: none;"/></g></g><g><g class="connection-group"><g class="arrow-line"><path class="connection real" stroke-dasharray="" d="  M56.95,344.46 L28.52,227.92" style="stroke: rgb(0, 0, 0); stroke-width: 1; fill: none;"/><g stroke="#000" transform="matrix(0.23700770976739433,0.9715077691458852,-0.9715077691458852,0.23700770976739433,28.04921860966408,225.97938144329896)" style="stroke: rgb(0, 0, 0); stroke-width: 1;"><path d=" M10.93,-3.29 Q4.96,-0.45 0,0 Q4.96,0.45 10.93,3.29"/></g></g></g><g class="connection-group"><g class="arrow-line"><path class="connection real" stroke-dasharray="" d="  M131.05,344.46 L159.48,227.92" style="stroke: rgb(0, 0, 0); stroke-width: 1; fill: none;"/><g stroke="#000" transform="matrix(-0.2370077097673946,0.9715077691458851,-0.9715077691458851,-0.2370077097673946,159.95078139033592,225.97938144329896)" style="stroke: rgb(0, 0, 0); stroke-width: 1;"><path d=" M10.93,-3.29 Q4.96,-0.45 0,0 Q4.96,0.45 10.93,3.29"/></g></g></g><g class="connection-group"><g class="arrow-line"><path class="connection real" stroke-dasharray="" d="  M82.5,172.25 L38.13,204.07" style="stroke: rgb(0, 0, 0); stroke-width: 1; fill: none;"/><g stroke="#000" transform="matrix(0.8126941644330941,-0.5826904796685758,0.5826904796685758,0.8126941644330941,36.5,205.2328178694158)" style="stroke: rgb(0, 0, 0); stroke-width: 1;"><path d=" M10.93,-3.29 Q4.96,-0.45 0,0 Q4.96,0.45 10.93,3.29"/></g></g></g><g class="connection-group"><g class="arrow-line"><path class="connection real" stroke-dasharray="" d="  M105.5,172.25 L149.87,204.07" style="stroke: rgb(0, 0, 0); stroke-width: 1; fill: none;"/><g stroke="#000" transform="matrix(-0.8126941644330941,-0.5826904796685759,0.5826904796685759,-0.8126941644330941,151.5,205.23281786941578)" style="stroke: rgb(0, 0, 0); stroke-width: 1;"><path d=" M10.93,-3.29 Q4.96,-0.45 0,0 Q4.96,0.45 10.93,3.29"/></g></g></g><g class="connection-group"><g class="arrow-line"><path class="connection real" stroke-dasharray="" d="  M82.5,110.05 C58.38,114.67 40.31,144.43 28.28,199.31" style="stroke: rgb(0, 0, 0); stroke-width: 1; fill: none;"/><g stroke="#000" transform="matrix(0.2101305002519371,-0.9776733467083322,0.9776733467083322,0.2101305002519371,27.91984628208641,200.97938146790696)" style="stroke: rgb(0, 0, 0); stroke-width: 1;"><path d=" M10.93,-3.29 Q4.96,-0.45 0,0 Q4.96,0.45 10.93,3.29"/></g></g></g><g class="connection-group"><g class="arrow-line"><path class="connection real" stroke-dasharray="" d="  M105.5,110.53 C127.84,115.34 145.78,144.94 159.31,199.32" style="stroke: rgb(0, 0, 0); stroke-width: 1; fill: none;"/><g stroke="#000" transform="matrix(-0.23785541987796335,-0.9713005710050199,0.9713005710050199,-0.23785541987796335,159.71651273967402,200.97938154858014)" style="stroke: rgb(0, 0, 0); stroke-width: 1;"><path d=" M10.93,-3.29 Q4.96,-0.45 0,0 Q4.96,0.45 10.93,3.29"/></g></g></g><g class="connection-group"><g class="arrow-line"><path class="connection real" stroke-dasharray="" d="  M82.5,58.57 C47.97,55 29,101.98 25.58,199.51" style="stroke: rgb(0, 0, 0); stroke-width: 1; fill: none;"/><g stroke="#000" transform="matrix(0.03332961485243747,-0.9994444140490196,0.9994444140490196,0.03332961485243747,25.525541005957024,200.97938147277193)" style="stroke: rgb(0, 0, 0); stroke-width: 1;"><path d=" M10.93,-3.29 Q4.96,-0.45 0,0 Q4.96,0.45 10.93,3.29"/></g></g></g><g class="connection-group"><g class="arrow-line"><path class="connection real" stroke-dasharray="" d="  M105.5,59.43 C142.24,59.2 161.3,105.91 162.69,199.56" style="stroke: rgb(0, 0, 0); stroke-width: 1; fill: none;"/><g stroke="#000" transform="matrix(-0.012915077400324472,-0.9999165969098341,0.9999165969098341,-0.012915077400324472,162.71454746136502,200.97938142819956)" style="stroke: rgb(0, 0, 0); stroke-width: 1;"><path d=" M10.93,-3.29 Q4.96,-0.45 0,0 Q4.96,0.45 10.93,3.29"/></g></g></g><g class="connection-group"><g class="arrow-line"><path class="connection real" stroke-dasharray="" d="  M105.5,18.6 C180.05,52.12 200.87,112.48 167.97,199.66" style="stroke: rgb(0, 0, 0); stroke-width: 1; fill: none;"/><g stroke="#000" transform="matrix(0.35722709871531494,-0.9340175586911836,0.9340175586911836,0.35722709871531494,167.47324483632653,200.97938147268633)" style="stroke: rgb(0, 0, 0); stroke-width: 1;"><path d=" M10.93,-3.29 Q4.96,-0.45 0,0 Q4.96,0.45 10.93,3.29"/></g></g></g><g class="connection-group"><g class="arrow-line"><path class="connection real" stroke-dasharray="" d="  M82.5,17.42 C9.65,42.43 -10.98,103.14 20.61,199.52" style="stroke: rgb(0, 0, 0); stroke-width: 1; fill: none;"/><g stroke="#000" transform="matrix(-0.31498651965530544,-0.9490961449902944,0.9490961449902944,-0.31498651965530544,21.085854586659366,200.9793814698794)" style="stroke: rgb(0, 0, 0); stroke-width: 1;"><path d=" M10.93,-3.29 Q4.96,-0.45 0,0 Q4.96,0.45 10.93,3.29"/></g></g></g></g><g/><!-- react-empty: 77166 --></svg>
        <svg xmlns="http://www.w3.org/2000/svg" width="187.00001525878906" height="388.33038330078125" style="width:187.00001525878906px;height:388.33038330078125px;font-family:Asana-Math, Asana;background:white;"><g><g><g style="transform:matrix(1,0,0,1,52.294677734375,363.66966247558594);"><path d="M889 271C889 509 692 705 453 705C214 705 18 509 18 271C18 32 214 -164 453 -164C692 -164 889 32 889 271Z" stroke="rgb(0, 0, 0)" stroke-width="8" fill="rgb(0, 0, 0)" style="transform:matrix(0.017,0,0,-0.017,0,0);"></path></g></g></g><g><g><g style="transform:matrix(1,0,0,1,120.294677734375,363.66966247558594);"><path d="M889 271C889 509 692 705 453 705C214 705 18 509 18 271C18 32 214 -164 453 -164C692 -164 889 32 889 271Z" stroke="rgb(0, 0, 0)" stroke-width="8" fill="rgb(0, 0, 0)" style="transform:matrix(0.017,0,0,-0.017,0,0);"></path></g></g></g><g><g><g style="transform:matrix(1,0,0,1,17.294677734375,220.18751525878906);"><path d="M889 271C889 509 692 705 453 705C214 705 18 509 18 271C18 32 214 -164 453 -164C692 -164 889 32 889 271Z" stroke="rgb(0, 0, 0)" stroke-width="8" fill="rgb(0, 0, 0)" style="transform:matrix(0.017,0,0,-0.017,0,0);"></path></g></g></g><g><g><g style="transform:matrix(1,0,0,1,155.294677734375,220.18751525878906);"><path d="M889 271C889 509 692 705 453 705C214 705 18 509 18 271C18 32 214 -164 453 -164C692 -164 889 32 889 271Z" stroke="rgb(0, 0, 0)" stroke-width="8" fill="rgb(0, 0, 0)" style="transform:matrix(0.017,0,0,-0.017,0,0);"></path></g></g></g><g><g><g style="transform:matrix(1,0,0,1,86.294677734375,170.71429443359375);"><path d="M889 271C889 509 692 705 453 705C214 705 18 509 18 271C18 32 214 -164 453 -164C692 -164 889 32 889 271Z" stroke="rgb(0, 0, 0)" stroke-width="8" fill="rgb(0, 0, 0)" style="transform:matrix(0.017,0,0,-0.017,0,0);"></path></g></g></g><g><g><g style="transform:matrix(1,0,0,1,86.294677734375,112.71429443359375);"><path d="M889 271C889 509 692 705 453 705C214 705 18 509 18 271C18 32 214 -164 453 -164C692 -164 889 32 889 271Z" stroke="rgb(0, 0, 0)" stroke-width="8" fill="rgb(0, 0, 0)" style="transform:matrix(0.017,0,0,-0.017,0,0);"></path></g></g></g><g><g><g style="transform:matrix(1,0,0,1,86.294677734375,64.71427917480469);"><path d="M889 271C889 509 692 705 453 705C214 705 18 509 18 271C18 32 214 -164 453 -164C692 -164 889 32 889 271Z" stroke="rgb(0, 0, 0)" stroke-width="8" fill="rgb(0, 0, 0)" style="transform:matrix(0.017,0,0,-0.017,0,0);"></path></g></g></g><g><g><g style="transform:matrix(1,0,0,1,86.294677734375,19.71428680419922);"><path d="M889 271C889 509 692 705 453 705C214 705 18 509 18 271C18 32 214 -164 453 -164C692 -164 889 32 889 271Z" stroke="rgb(0, 0, 0)" stroke-width="8" fill="rgb(0, 0, 0)" style="transform:matrix(0.017,0,0,-0.017,0,0);"></path></g></g></g></svg>
</svg>
