<svg xmlns="http://www.w3.org/2000/svg" width="534.9857788085938" height="385.9801025390625" style="
        width:534.9857788085938px;
        height:385.9801025390625px;
        background: white;
        fill: none;
">
        
        <svg xmlns="http://www.w3.org/2000/svg" class="role-diagram-draw-area"><g class="shapes-region" style="stroke: black; fill: none;"><g class="composite-shape"><path class="real" d=" M53.5,62.75 C53.5,37.21 74.21,16.5 99.75,16.5 C125.29,16.5 146,37.21 146,62.75 C146,88.29 125.29,109 99.75,109 C74.21,109 53.5,88.29 53.5,62.75 Z" style="stroke-width: 1; stroke: rgb(0, 0, 0); fill: none;"/></g><g class="arrow-line"><path class="connection real" stroke-dasharray="" d="  M88,107 L69.5,149" style="stroke: rgb(0, 0, 0); stroke-width: 1; fill: none;"/></g><g class="arrow-line"><path class="connection real" stroke-dasharray="" d="  M66,95 L34,125" style="stroke: rgb(0, 0, 0); stroke-width: 1; fill: none;"/></g><g class="arrow-line"><path class="connection real" stroke-dasharray="" d="  M115,107 L148,142" style="stroke: rgb(0, 0, 0); stroke-width: 1; fill: none;"/></g><g class="arrow-line"><path class="connection real" stroke-dasharray="" d="  M136,91 L175,119" style="stroke: rgb(0, 0, 0); stroke-width: 1; fill: none;"/></g><g class="composite-shape"><path class="real" d=" M20,139 C20,131.27 26.27,125 34,125 C41.73,125 48,131.27 48,139 C48,146.73 41.73,153 34,153 C26.27,153 20,146.73 20,139 Z" style="stroke-width: 1; stroke: rgb(0, 0, 0); fill: none;"/></g><g class="composite-shape"><path class="real" d=" M55.5,163 C55.5,155.27 61.77,149 69.5,149 C77.23,149 83.5,155.27 83.5,163 C83.5,170.73 77.23,177 69.5,177 C61.77,177 55.5,170.73 55.5,163 Z" style="stroke-width: 1; stroke: rgb(0, 0, 0); fill: none;"/></g><g class="composite-shape"><path class="real" d=" M134,156 C134,148.27 140.27,142 148,142 C155.73,142 162,148.27 162,156 C162,163.73 155.73,170 148,170 C140.27,170 134,163.73 134,156 Z" style="stroke-width: 1; stroke: rgb(0, 0, 0); fill: none;"/></g><g class="composite-shape"><path class="real" d=" M161,133 C161,125.27 167.27,119 175,119 C182.73,119 189,125.27 189,133 C189,140.73 182.73,147 175,147 C167.27,147 161,140.73 161,133 Z" style="stroke-width: 1; stroke: rgb(0, 0, 0); fill: none;"/></g><g class="intersections-group"><g style="stroke: rgb(0, 0, 0); stroke-width: 1; fill: none;"/></g></g><g/><g/><!-- react-empty: 4797 --></svg>
        <svg xmlns="http://www.w3.org/2000/svg" width="532.9971313476562" height="383.991455078125" style="width:532.9971313476562px;height:383.991455078125px;font-family:Asana-Math, Asana;background:white;"></svg>
</svg>
