<svg xmlns="http://www.w3.org/2000/svg" width="261" height="139" style="
        width:261px;
        height:139px;
        background: white;
        fill: none;
">
        
        <svg xmlns="http://www.w3.org/2000/svg" class="role-diagram-draw-area"><g class="shapes-region" style="stroke: black; fill: none;"><g class="intersections-group"><g style="stroke: rgb(0, 0, 0); stroke-width: 1; fill: none;"/></g></g><g><g class="connection-group"><g class="arrow-line"><path class="connection real" stroke-dasharray="" d="  M88,94.4 L149.44,45.25" style="stroke: rgb(0, 0, 0); stroke-width: 1; fill: none;"/><g stroke="#000" transform="matrix(-0.7808667188358005,0.6246976608044973,-0.6246976608044973,-0.7808667188358005,151,43.99999999999999)" style="stroke: rgb(0, 0, 0); stroke-width: 1;"><path d=" M10.93,-3.29 Q4.96,-0.45 0,0 Q4.96,0.45 10.93,3.29"/></g></g></g><g class="connection-group"><g class="arrow-line"><path class="connection real" stroke-dasharray="" d="  M78.41,89.5 L78.11,47" style="stroke: rgb(0, 0, 0); stroke-width: 1; fill: none;"/><g stroke="#000" transform="matrix(0.007155788862700713,0.9999743970151198,-0.9999743970151198,0.007155788862700713,78.09285714285714,45)" style="stroke: rgb(0, 0, 0); stroke-width: 1;"><path d=" M10.93,-3.29 Q4.96,-0.45 0,0 Q4.96,0.45 10.93,3.29"/></g></g></g><g class="connection-group"><g class="arrow-line"><path class="connection real" stroke-dasharray="1 1" d="  M89,32 Q91.5,29.5 94,32 Q96.5,34.5 99,32 Q101.5,29.5 104,32 Q106.5,34.5 109,32 Q111.5,29.5 114,32 Q116.5,34.5 119,32 Q121.5,29.5 124,32 L127.5,32 L135.5,32" style="stroke: rgb(0, 0, 0); stroke-width: 1; fill: none;"/><g stroke="#000" transform="matrix(-1,1.2246467991473532e-16,-1.2246467991473532e-16,-1,137.5,32)" style="stroke: rgb(0, 0, 0); stroke-width: 1;"><path d=" M10.93,-3.29 Q4.96,-0.45 0,0 Q4.96,0.45 10.93,3.29"/></g></g></g></g><g/><!-- react-empty: 88927 --></svg>
        <svg xmlns="http://www.w3.org/2000/svg" width="259" height="137" style="width:259px;height:137px;font-family:Asana-Math, Asana;background:white;"><g><g><g style="transform:matrix(1,0,0,1,72.84375,108.5);"><path d="M146 266C146 526 243 632 301 700L282 726C225 675 60 542 60 266C60 159 85 58 133 -32C168 -99 200 -138 282 -215L301 -194C255 -137 146 -15 146 266Z" stroke="rgb(0, 0, 0)" stroke-width="8" fill="rgb(0, 0, 0)" style="transform:matrix(0.017,0,0,-0.017,0,0);"></path></g><g style="transform:matrix(1,0,0,1,78.5,108.5);"><path d="M51 726L32 700C87 636 187 526 187 266C187 -10 83 -131 32 -194L51 -215C104 -165 273 -23 273 265C273 542 108 675 51 726Z" stroke="rgb(0, 0, 0)" stroke-width="8" fill="rgb(0, 0, 0)" style="transform:matrix(0.017,0,0,-0.017,0,0);"></path></g></g></g><g><g><g style="transform:matrix(1,0,0,1,71.21875,37.7578125);"><path d="M103 664L150 662C174 661 185 653 185 636C185 629 179 576 176 559L104 125C89 36 86 31 46 28L10 25L7 -3L39 -3L133 0L227 -3L259 -3L262 25L210 28C184 30 174 37 174 57C174 63 175 74 176 78L265 613C272 652 277 657 316 661L351 664L354 692L248 689C231 689 213 689 170 690L106 692Z" stroke="rgb(0, 0, 0)" stroke-width="8" fill="rgb(0, 0, 0)" style="transform:matrix(0.017,0,0,-0.017,0,0);"></path></g><g><g><g><g style="transform:matrix(1,0,0,1,76.859375,40.1421875);"><path d="M146 266C146 526 243 632 301 700L282 726C225 675 60 542 60 266C60 159 85 58 133 -32C168 -99 200 -138 282 -215L301 -194C255 -137 146 -15 146 266Z" stroke="rgb(0, 0, 0)" stroke-width="8" fill="rgb(0, 0, 0)" style="transform:matrix(0.0119,0,0,-0.0119,0,0);"></path></g><g style="transform:matrix(1,0,0,1,80.8125,40.1421875);"><path d="M51 726L32 700C87 636 187 526 187 266C187 -10 83 -131 32 -194L51 -215C104 -165 273 -23 273 265C273 542 108 675 51 726Z" stroke="rgb(0, 0, 0)" stroke-width="8" fill="rgb(0, 0, 0)" style="transform:matrix(0.0119,0,0,-0.0119,0,0);"></path></g></g></g></g></g></g><g><g><g style="transform:matrix(1,0,0,1,141.5,39);"><path d="M103 664L150 662C174 661 185 653 185 636C185 629 179 576 176 559L104 125C89 36 86 31 46 28L10 25L7 -3L39 -3L133 0L227 -3L259 -3L262 25L210 28C184 30 174 37 174 57C174 63 175 74 176 78L265 613C272 652 277 657 316 661L351 664L354 692L248 689C231 689 213 689 170 690L106 692ZM356 388L363 368L395 389C432 412 435 414 442 414C453 414 460 404 460 389C460 338 419 145 378 2L385 -9C410 -2 433 4 455 8C474 134 495 199 541 268C595 352 670 414 715 414C726 414 732 405 732 390C732 372 729 351 721 319L669 107C660 70 656 47 656 31C656 6 667 -9 686 -9C712 -9 748 12 846 85L836 103L810 86C781 67 759 56 749 56C742 56 736 65 736 76C736 81 737 92 738 96L804 372C811 401 815 429 815 446C815 469 804 482 784 482C742 482 673 444 614 389C576 354 548 320 496 247L534 408C538 426 540 438 540 449C540 470 532 482 517 482C496 482 457 460 384 408ZM1012 390L956 107C955 99 943 61 943 31C943 6 954 -9 973 -9C1008 -9 1043 11 1121 74L1152 99L1142 117L1097 86C1068 66 1048 56 1037 56C1028 56 1023 64 1023 76C1023 102 1037 183 1066 328L1079 390L1186 390L1197 440C1159 436 1125 434 1087 434C1103 528 1114 577 1132 631L1121 646C1101 634 1074 622 1043 610L1018 440C974 419 948 408 930 403L928 390ZM1547 111L1523 94C1470 56 1422 36 1386 36C1339 36 1310 73 1310 133C1310 158 1313 185 1318 214C1335 218 1444 248 1469 259C1554 296 1593 342 1593 404C1593 451 1559 482 1509 482C1441 496 1331 423 1294 349C1264 299 1234 180 1234 113C1234 35 1278 -11 1350 -11C1407 -11 1463 17 1555 92ZM1332 274C1349 343 1369 386 1398 412C1416 428 1447 440 1471 440C1500 440 1519 420 1519 388C1519 344 1484 297 1432 272C1404 258 1368 247 1323 237ZM1882 482C1815 482 1662 419 1662 259C1662 182 1707 136 1784 136C1792 136 1803 136 1814 137L1773 99C1757 84 1746 66 1746 52C1746 42 1753 31 1767 19C1698 -4 1570 -48 1570 -159C1570 -230 1640 -276 1749 -276C1878 -276 1991 -204 1991 -121C1991 -85 1970 -49 1927 -14L1867 35C1833 62 1820 81 1820 100C1820 114 1835 128 1847 146C1945 170 2016 253 2016 342C2016 357 2013 376 2012 380C2029 378 2037 378 2046 378C2063 378 2073 379 2096 382L2105 427L2102 433C2074 426 2054 424 2000 424C2000 425 1976 482 1882 482ZM1783 1L1860 -58C1906 -94 1925 -121 1925 -154C1925 -206 1856 -248 1773 -248C1691 -248 1634 -206 1634 -145C1634 -43 1744 -11 1783 1ZM1857 448C1915 448 1944 412 1944 341C1944 238 1896 168 1826 168C1765 168 1733 209 1733 288C1733 383 1784 448 1857 448ZM2434 111L2410 94C2357 56 2309 36 2273 36C2226 36 2197 73 2197 133C2197 158 2200 185 2205 214C2222 218 2331 248 2356 259C2441 296 2480 342 2480 404C2480 451 2446 482 2396 482C2328 496 2218 423 2181 349C2151 299 2121 180 2121 113C2121 35 2165 -11 2237 -11C2294 -11 2350 17 2442 92ZM2219 274C2236 343 2256 386 2285 412C2303 428 2334 440 2358 440C2387 440 2406 420 2406 388C2406 344 2371 297 2319 272C2291 258 2255 247 2210 237ZM2862 365C2865 403 2870 435 2878 476C2867 481 2863 482 2858 482C2827 482 2796 458 2760 407C2721 351 2682 291 2666 256L2698 408C2702 425 2704 438 2704 450C2704 470 2696 482 2681 482C2660 482 2622 461 2548 408L2520 388L2527 368L2559 389C2587 407 2598 412 2607 412C2617 412 2624 403 2624 390C2624 332 2581 126 2541 -2L2551 -9C2566 -4 2582 -1 2605 4L2618 6L2644 126C2662 209 2685 262 2729 319C2763 363 2790 384 2812 384C2827 384 2837 379 2848 365Z" stroke="rgb(0, 0, 0)" stroke-width="8" fill="rgb(0, 0, 0)" style="transform:matrix(0.017,0,0,-0.017,0,0);"></path></g></g></g><g><g><g style="transform:matrix(1,0,0,1,124.78125,85);"><path d="M345 437L329 437L350 549C366 635 394 673 440 673C470 673 497 658 512 634L522 638C527 654 537 685 545 705L550 720C534 727 503 733 480 733C469 733 453 730 445 726C421 715 339 654 316 630C294 608 282 578 271 521L256 442C215 422 195 414 170 405L165 383L246 383L237 327C207 132 170 -54 148 -123C130 -182 100 -213 64 -213C41 -213 30 -206 12 -184L-2 -188C-6 -211 -20 -259 -25 -268C-16 -273 -1 -276 10 -276C51 -276 105 -245 144 -198C215 -114 235 -18 319 383L423 383C427 402 434 425 440 439L436 446C407 439 408 437 345 437Z" stroke="rgb(0, 0, 0)" stroke-width="8" fill="rgb(0, 0, 0)" style="transform:matrix(0.017,0,0,-0.017,0,0);"></path></g></g></g><g><g><g style="transform:matrix(1,0,0,1,53.1484375,73);"><path d="M34 388L41 368L73 389C110 412 113 414 120 414C130 414 138 404 138 391C138 384 134 361 130 347L64 107C56 76 51 49 51 30C51 6 62 -9 81 -9C107 -9 143 12 241 85L231 103L205 86C176 67 153 56 144 56C137 56 131 66 131 76C131 86 133 95 138 116L215 420C219 437 221 448 221 456C221 473 212 482 196 482C174 482 137 461 62 408ZM228 712C199 712 170 679 170 645C170 620 185 604 209 604C240 604 264 633 264 671C264 695 249 712 228 712ZM301 388L308 368L340 389C377 412 380 414 387 414C398 414 405 404 405 389C405 338 364 145 323 2L330 -9C355 -2 378 4 400 8C419 134 440 199 486 268C540 352 615 414 660 414C671 414 677 405 677 390C677 372 674 351 666 319L614 107C605 70 601 47 601 31C601 6 612 -9 631 -9C657 -9 693 12 791 85L781 103L755 86C726 67 704 56 694 56C687 56 681 65 681 76C681 81 682 92 683 96L749 372C756 401 760 429 760 446C760 469 749 482 729 482C687 482 618 444 559 389C521 354 493 320 441 247L479 408C483 426 485 438 485 449C485 470 477 482 462 482C441 482 402 460 329 408ZM1026 351L926 -144C915 -196 897 -231 879 -231C865 -231 847 -225 826 -212L818 -269C828 -274 841 -276 856 -276C896 -276 936 -233 972 -152C992 -107 1006 -57 1034 70L1110 420C1114 438 1116 451 1116 457C1116 473 1107 482 1091 482C1069 482 1032 461 957 408L929 388L936 368L968 389C1005 412 1008 414 1015 414C1025 414 1033 404 1033 391C1033 382 1026 356 1026 351ZM1117 712C1088 712 1059 679 1059 645C1059 620 1074 604 1098 604C1129 604 1153 633 1153 671C1153 695 1138 712 1117 712Z" stroke="rgb(0, 0, 0)" stroke-width="8" fill="rgb(0, 0, 0)" style="transform:matrix(0.017,0,0,-0.017,0,0);"></path></g></g></g><g><g><g style="transform:matrix(1,0,0,1,106.78125,21);"><path d="M236 722L224 733C179 711 138 697 64 691L60 670L108 670C126 670 142 667 142 647C142 641 142 632 140 622L98 388C78 272 36 80 10 2L17 -9L86 7C94 64 108 164 148 236C193 317 296 414 338 414C349 414 360 407 360 393C360 375 355 342 345 303L294 107C288 85 281 55 281 31C281 6 291 -9 312 -9C344 -9 412 41 471 85L461 103L435 86C412 71 386 56 374 56C367 56 361 65 361 76C361 88 364 101 368 116L432 372C438 398 443 423 443 447C443 464 437 482 411 482C376 482 299 437 231 374C198 343 172 308 144 273L140 275Z" stroke="rgb(0, 0, 0)" stroke-width="8" fill="rgb(0, 0, 0)" style="transform:matrix(0.017,0,0,-0.017,0,0);"></path></g></g></g></svg>
</svg>
