<svg xmlns="http://www.w3.org/2000/svg" width="244" height="239.6666717529297" style="
        width:244px;
        height:239.6666717529297px;
        background: white;
        fill: none;
">
        
        <svg xmlns="http://www.w3.org/2000/svg" class="role-diagram-draw-area"><g class="shapes-region" style="stroke: black; fill: none;"><g class="intersections-group"><g style="stroke: rgb(0, 0, 0); stroke-width: 1; fill: none;"/></g></g><g><g class="connection-group"><g class="arrow-line"><path class="connection real" stroke-dasharray="6 6" d="  M122,52.54 L122,101.46" style="stroke: rgb(0, 0, 0); stroke-width: 1; fill: none;"/><g stroke="#000" transform="matrix(-1.8369701987210297e-16,-1,1,-1.8369701987210297e-16,122,103.45876288659791)" style="stroke: rgb(0, 0, 0); stroke-width: 1;"><path d=" M10.93,-3.29 Q4.96,-0.45 0,0 Q4.96,0.45 10.93,3.29"/></g></g></g><g class="connection-group"><g class="arrow-line"><path class="connection real" stroke-dasharray="" d="  M112.22,128.46 L72.01,179.88" style="stroke: rgb(0, 0, 0); stroke-width: 1; fill: none;"/><g stroke="#000" transform="matrix(0.6160739923790091,-0.7876882860079796,0.7876882860079796,0.6160739923790091,70.77564102564102,181.45876288659792)" style="stroke: rgb(0, 0, 0); stroke-width: 1;"><path d=" M10.93,-3.29 Q4.96,-0.45 0,0 Q4.96,0.45 10.93,3.29"/></g></g></g><g class="connection-group"><g class="arrow-line"><path class="connection real" stroke-dasharray="" d="  M130.81,128.46 L167.03,179.82" style="stroke: rgb(0, 0, 0); stroke-width: 1; fill: none;"/><g stroke="#000" transform="matrix(-0.576289688701533,-0.8172454923071097,0.8172454923071097,-0.576289688701533,168.18589743589743,181.45876288659792)" style="stroke: rgb(0, 0, 0); stroke-width: 1;"><path d=" M10.93,-3.29 Q4.96,-0.45 0,0 Q4.96,0.45 10.93,3.29"/></g></g></g><g class="connection-group"><g class="arrow-line"><path class="connection real" stroke-dasharray="" d="  M110.5,47.97 C69.8,72.71 52.86,116.57 59.65,179.54" style="stroke: rgb(0, 0, 0); stroke-width: 1; fill: none;"/><g stroke="#000" transform="matrix(-0.11407022556510632,-0.9934726889248269,0.9934726889248269,-0.11407022556510632,59.86726862008298,181.4587628593884)" style="stroke: rgb(0, 0, 0); stroke-width: 1;"><path d=" M10.93,-3.29 Q4.96,-0.45 0,0 Q4.96,0.45 10.93,3.29"/></g></g></g><g class="connection-group"><g class="arrow-line"><path class="connection real" stroke-dasharray="" d="  M133.5,49.68 C176.4,82.56 191.84,125.94 179.81,179.82" style="stroke: rgb(0, 0, 0); stroke-width: 1; fill: none;"/><g stroke="#000" transform="matrix(0.2264813131109788,-0.9740155105600355,0.9740155105600355,0.2264813131109788,179.4405419366978,181.458762884659)" style="stroke: rgb(0, 0, 0); stroke-width: 1;"><path d=" M10.93,-3.29 Q4.96,-0.45 0,0 Q4.96,0.45 10.93,3.29"/></g></g></g></g><g/><!-- react-empty: 51232 --></svg>
        <svg xmlns="http://www.w3.org/2000/svg" width="242" height="237.6666717529297" style="width:242px;height:237.6666717529297px;font-family:Asana-Math, Asana;background:white;"><g><g><g style="transform:matrix(1,0,0,1,114.296875,46.69792175292969);"><path d="M889 271C889 509 692 705 453 705C214 705 18 509 18 271C18 32 214 -164 453 -164C692 -164 889 32 889 271Z" stroke="rgb(0, 0, 0)" stroke-width="8" fill="rgb(0, 0, 0)" style="transform:matrix(0.017,0,0,-0.017,0,0);"></path></g></g></g><g><g><g style="transform:matrix(1,0,0,1,114.296875,122.625);"><path d="M889 271C889 509 692 705 453 705C214 705 18 509 18 271C18 32 214 -164 453 -164C692 -164 889 32 889 271Z" stroke="rgb(0, 0, 0)" stroke-width="8" fill="rgb(0, 0, 0)" style="transform:matrix(0.017,0,0,-0.017,0,0);"></path></g></g></g><g><g><g style="transform:matrix(1,0,0,1,169.296875,200.625);"><path d="M889 271C889 509 692 705 453 705C214 705 18 509 18 271C18 32 214 -164 453 -164C692 -164 889 32 889 271Z" stroke="rgb(0, 0, 0)" stroke-width="8" fill="rgb(0, 0, 0)" style="transform:matrix(0.017,0,0,-0.017,0,0);"></path></g></g></g><g><g><g style="transform:matrix(1,0,0,1,53.296875,200.625);"><path d="M889 271C889 509 692 705 453 705C214 705 18 509 18 271C18 32 214 -164 453 -164C692 -164 889 32 889 271Z" stroke="rgb(0, 0, 0)" stroke-width="8" fill="rgb(0, 0, 0)" style="transform:matrix(0.017,0,0,-0.017,0,0);"></path></g></g></g></svg>
</svg>
